<?xml version="1.0" encoding="UTF-8"?>
<svg id="uuid-0b337d96-91ed-4ecd-b7fe-ffb190b76673" data-name="Capa 2" xmlns="http://www.w3.org/2000/svg" viewBox="0 0 1920 1080">
  <defs>
    <style>
      .uuid-03cdaa9b-d0b6-4285-b7ef-ebe77d9a70ff {
        fill: #fff;
      }

      .uuid-8e9a54de-375d-47a9-bf7b-205081841540 {
        fill: #fbfcff;
      }

      .uuid-30da9e8e-a116-480c-8bd1-e9404c17d669, .uuid-98c86ed5-d4a9-4f25-947d-00b241a0e478 {
        fill: #1a1f36;
      }

      .uuid-5cdc0f81-4f23-41c3-8ece-5ffef90a3ab6, .uuid-13c2c2ac-72ce-4b0e-96fc-04868b63a04a {
        font-family: Wedges, Wedges;
        font-size: 74.24px;
      }

      .uuid-9ad1c609-cdec-49e1-a470-670af9d6d815 {
        fill: #f79b8d;
      }

      .uuid-98c86ed5-d4a9-4f25-947d-00b241a0e478 {
        font-size: 19.83px;
      }

      .uuid-98c86ed5-d4a9-4f25-947d-00b241a0e478, .uuid-fc58e36b-fdcd-452e-b361-a5326541ecc5 {
        font-family: sagesans-Regular, 'sage sans';
      }

      .uuid-11deea88-575a-429e-a5c0-a0b99b5af42b {
        fill: #241726;
      }

      .uuid-7efcf311-bb95-455c-8a6f-8050f23017ff {
        fill: #e14a65;
      }

      .uuid-5a60bbdd-c67d-48ea-9ca3-1c9d93f9f3d5 {
        fill: #96c;
      }

      .uuid-d0464c2a-504d-4a66-98c2-c95a936815fa {
        fill: #6eb5ff;
      }

      .uuid-aad337ff-10ed-4937-b61e-bbd46d3f5608 {
        fill: #e9b600;
      }

      .uuid-13c2c2ac-72ce-4b0e-96fc-04868b63a04a, .uuid-431f2a72-9ebe-4d3e-8453-bdd76f7c0e4d {
        fill: #fff77d;
      }

      .uuid-fc58e36b-fdcd-452e-b361-a5326541ecc5 {
        font-size: 43.16px;
      }

      .uuid-1ffb2fa5-f1db-45a1-9f63-a9a49ec9d43c {
        fill: #52afa6;
      }

      .uuid-bf688af6-2292-459a-8624-e8a0bffea019 {
        fill: #b8dbff;
      }

      .uuid-4218e8bc-ef03-40c5-9c80-1cbfa175a2d4 {
        fill: #d98011;
      }

      .uuid-866392e8-f0fb-4429-9019-05d695c9a81f {
        fill: #df4f3e;
      }
    </style>
  </defs>
  <g id="uuid-a795a6d3-37a0-4b62-ae5b-d0db866bcb0a" data-name="Capa 1">
    <rect class="uuid-03cdaa9b-d0b6-4285-b7ef-ebe77d9a70ff" width="1920" height="1080"/>
  </g>
  <g id="uuid-e272c95b-317b-4386-9ad6-176d13c77aa2" data-name="Capa 3">
    <path class="uuid-431f2a72-9ebe-4d3e-8453-bdd76f7c0e4d" d="m104.15,639.69h821.02c11.12,0,22.28.25,33.4,0,.47-.01.95,0,1.43,0,4.56,0,4.57-7.09,0-7.09H138.98c-11.12,0-22.28-.25-33.4,0-.47.01-.95,0-1.43,0-4.56,0-4.57,7.09,0,7.09h0Z"/>
  </g>
  <g id="uuid-b946182b-a032-4fbb-b98f-58f01693be31" data-name="Capa 2">
    <g>
      <g>
        <path class="uuid-03cdaa9b-d0b6-4285-b7ef-ebe77d9a70ff" d="m1085.65,403.08s-3.19-26.9,22.55-17.87c25.74,9.03,16.99,33.5,7.25,24.96-9.74-8.54,9.12-36.84,28.73-23.87,19.61,12.96,14.87,37.56.81,39.2-14.05,1.64,8.87-28.6,26.3-9.51,17.43,19.08-21.61,52.95-37.23,40.11-15.62-12.84-3-33.08.62-20.6,3.62,12.48-6.74,24.54-34.73,23.69-27.98-.85-14.68-43.74-5.06-31.08,9.62,12.66-6.81,26.6-26.36,11.57-19.55-15.02,3.37-45.26,17.11-36.6Z"/>
        <path class="uuid-11deea88-575a-429e-a5c0-a0b99b5af42b" d="m1102.7,461.02c-.91,0-1.85-.01-2.8-.04-9.17-.28-15.57-5.06-17.74-13.19-4.82-.67-9.88-2.97-14.72-6.69-7.61-5.85-10.13-14.6-6.93-24.02,3.3-9.71,12-17.32,19.81-17.32,1.18,0,2.32.16,3.41.49.02-3.72.67-10.03,4.46-14.3,4.29-4.83,11.3-5.7,20.6-2.44,3.57,1.25,6.69,2.86,9.31,4.79,4.44-4.56,10.06-7.14,15.64-7.14,3.92,0,7.77,1.23,11.43,3.64,8.48,5.6,13.56,14.12,13.86,23.06,4.96.21,9.64,2.59,13.58,6.91,5.38,5.89,6.32,13.73,2.65,22.06-5.61,12.73-20.88,23.89-32.68,23.89h0c-3.79,0-7.04-1.09-9.65-3.24-1.22-1-2.32-2.09-3.29-3.24-6.04,4.44-15.29,6.78-26.93,6.78Zm-16.74-13.04c1.54,4.54,5.27,9.15,14.05,9.42.92.03,1.81.04,2.69.04,13.39,0,20.81-3.13,24.84-6.11-3.83-6.39-3.46-13.33-1.25-17.61,1.29-2.5,3.14-3.93,5.08-3.93,1.31,0,3.72.68,5.03,5.21,1.82,6.25.33,12.32-4.07,16.89.84,1,1.8,1.94,2.86,2.82,1.96,1.61,4.44,2.43,7.38,2.43h0c10.37,0,24.38-10.37,29.4-21.75,2.17-4.92,3.58-12.07-2.02-18.19-3.32-3.64-7.04-5.57-11.07-5.75-.96,8.58-6.41,14.98-13.7,15.83-4.69.55-6.28-1.92-6.36-4.21-.17-5.07,7.22-13.5,16.61-14.99-.24-7.82-4.74-15.31-12.26-20.29-7.4-4.89-15.98-3.57-22.35,2.84,5.99,5.86,7.06,13,5.33,17.74-1.21,3.32-3.76,5.38-6.66,5.38h0c-1.77,0-3.59-.77-5.25-2.23-5.38-4.71-3.5-13.76,1.5-20.48-2.28-1.65-5.02-3.04-8.16-4.14-7.8-2.73-13.42-2.29-16.73,1.43-4.49,5.04-3.46,14.46-3.45,14.55.08.68-.24,1.36-.82,1.72-.58.37-1.32.37-1.91,0-1.32-.83-2.79-1.26-4.37-1.26-6.26,0-13.62,6.68-16.41,14.89-2.68,7.88-.59,15.18,5.72,20.03,3.95,3.03,8,5,11.86,5.78-.7-6.92,1.49-13.65,4.31-17.1,1.58-1.94,3.41-2.96,5.3-2.96,1.33,0,3.31.53,5.22,3.04,3.4,4.47,4.13,9.48,2.02,13.74-2.14,4.31-6.73,6.97-12.38,7.22Zm45.41-14.6c-.34,0-1.15.54-1.9,1.99-1.62,3.14-1.93,8.48.78,13.49,3.13-3.58,4.09-8.07,2.7-12.86-.55-1.91-1.27-2.62-1.59-2.62Zm-40.27-5.81c-.76,0-1.66.58-2.52,1.64-2.41,2.94-4.22,9.25-3.43,15.21,4.63-.01,8.36-1.97,9.99-5.24,1.49-3,.88-6.63-1.66-9.98-.57-.74-1.43-1.63-2.37-1.63Zm64.14-15.8c-7.45,1.59-12.91,8.49-12.82,11.19.01.33.03.82,1.52.82.26,0,.54-.02.84-.05,5.39-.63,9.48-5.42,10.46-11.95Zm-36.74-18.41c-4.32,5.85-5.21,12.54-1.87,15.46,2.54,2.22,5.04,1.43,6.17-1.68,1.31-3.59.41-9.08-4.3-13.78Z"/>
      </g>
      <g>
        <path class="uuid-03cdaa9b-d0b6-4285-b7ef-ebe77d9a70ff" d="m1683.7,674.44s-3.19-26.9,22.55-17.87c25.74,9.03,16.99,33.5,7.25,24.96-9.74-8.54,9.12-36.84,28.73-23.87,19.61,12.96,14.87,37.56.81,39.2-14.05,1.64,8.87-28.6,26.3-9.51,17.43,19.08-21.61,52.95-37.23,40.11-15.62-12.84-3-33.08.62-20.6,3.62,12.48-6.74,24.54-34.73,23.69-27.98-.85-14.68-43.74-5.06-31.08,9.62,12.66-6.81,26.6-26.36,11.57-19.55-15.02,3.37-45.26,17.11-36.6Z"/>
        <path class="uuid-11deea88-575a-429e-a5c0-a0b99b5af42b" d="m1700.75,732.38c-.91,0-1.85-.01-2.8-.04-9.17-.28-15.57-5.06-17.74-13.19-4.82-.67-9.88-2.97-14.72-6.69-7.61-5.85-10.13-14.6-6.93-24.03,3.3-9.71,12-17.32,19.8-17.32,1.18,0,2.32.16,3.41.49.02-3.72.67-10.03,4.46-14.3,4.29-4.83,11.3-5.7,20.6-2.44,3.57,1.25,6.69,2.86,9.3,4.79,4.44-4.56,10.06-7.14,15.64-7.14,3.92,0,7.77,1.23,11.43,3.64,8.48,5.6,13.56,14.12,13.87,23.06,4.95.21,9.64,2.59,13.58,6.91,5.38,5.89,6.32,13.73,2.65,22.06-5.61,12.73-20.88,23.89-32.68,23.89h0c-3.79,0-7.04-1.09-9.65-3.24-1.22-1-2.32-2.09-3.29-3.24-6.04,4.44-15.29,6.78-26.93,6.78Zm-16.74-13.04c1.54,4.54,5.27,9.15,14.05,9.42.92.03,1.81.04,2.69.04,13.39,0,20.81-3.13,24.84-6.11-3.83-6.39-3.46-13.33-1.25-17.61,1.29-2.5,3.14-3.93,5.08-3.93,1.31,0,3.72.68,5.03,5.21,1.82,6.25.33,12.32-4.07,16.89.84,1,1.8,1.94,2.86,2.82,1.96,1.61,4.44,2.43,7.38,2.43h0c10.37,0,24.38-10.37,29.4-21.75,2.17-4.92,3.58-12.07-2.02-18.19-3.32-3.64-7.05-5.57-11.07-5.75-.96,8.58-6.41,14.98-13.7,15.83-4.7.55-6.28-1.92-6.36-4.21-.17-5.07,7.22-13.5,16.61-14.99-.24-7.82-4.74-15.31-12.26-20.29-7.4-4.89-15.98-3.58-22.35,2.84,5.99,5.86,7.06,13,5.33,17.74-1.21,3.32-3.76,5.38-6.66,5.38h0c-1.77,0-3.59-.77-5.25-2.23-5.38-4.71-3.5-13.76,1.5-20.48-2.28-1.65-5.02-3.04-8.16-4.14-7.81-2.74-13.43-2.29-16.73,1.43-4.5,5.07-3.45,14.45-3.44,14.54.08.69-.24,1.36-.82,1.73-.58.37-1.33.37-1.91,0-1.32-.83-2.79-1.26-4.38-1.26-6.26,0-13.62,6.68-16.41,14.88-2.68,7.88-.59,15.18,5.72,20.03,3.95,3.03,8,5,11.86,5.78-.7-6.92,1.49-13.65,4.31-17.1,1.58-1.94,3.41-2.96,5.3-2.96,1.33,0,3.31.53,5.22,3.04,3.4,4.47,4.13,9.48,2.02,13.74-2.14,4.31-6.73,6.97-12.38,7.22Zm45.41-14.6c-.34,0-1.15.54-1.9,1.99-1.62,3.14-1.93,8.48.78,13.49,3.13-3.58,4.09-8.07,2.7-12.86-.55-1.91-1.27-2.62-1.59-2.62Zm-40.27-5.81c-.76,0-1.66.58-2.52,1.64-2.41,2.94-4.22,9.25-3.43,15.21,4.63-.01,8.36-1.97,9.99-5.24,1.48-3,.88-6.63-1.66-9.98-.57-.74-1.43-1.63-2.37-1.63Zm64.14-15.8c-7.45,1.59-12.9,8.49-12.81,11.19.01.33.03.82,1.52.82.26,0,.54-.02.84-.05,5.39-.63,9.48-5.42,10.46-11.95Zm-36.74-18.41c-4.31,5.85-5.21,12.54-1.87,15.46,2.54,2.22,5.04,1.43,6.17-1.68,1.31-3.59.41-9.08-4.3-13.78Z"/>
      </g>
      <path class="uuid-11deea88-575a-429e-a5c0-a0b99b5af42b" d="m1024.61,815.83l-.04-.03c-5.4-4.19-6.6-11.71-2.67-16.78,3.91-5.04,11.48-5.77,16.88-1.62,2.66,2.06,4.38,4.92,4.89,8.09.5,3.17-.27,6.26-2.17,8.71-3.91,5.04-11.49,5.77-16.88,1.62Zm12.15-15.74c-3.87-2.97-9.25-2.45-12.03,1.13-2.79,3.6-1.94,8.95,1.9,11.92l-.99,1.36,1.02-1.33c3.83,2.95,9.22,2.43,12-1.15,1.35-1.74,1.9-3.94,1.54-6.2-.36-2.25-1.58-4.29-3.44-5.73Z"/>
      <path class="uuid-11deea88-575a-429e-a5c0-a0b99b5af42b" d="m1515.18,424.91l-.04-.03c-5.4-4.19-6.39-11.99-2.2-17.39,4.17-5.38,11.95-6.38,17.35-2.23,2.66,2.06,4.33,4.99,4.75,8.28.41,3.28-.47,6.53-2.5,9.15-4.17,5.38-11.96,6.38-17.35,2.23Zm12.96-16.79c-3.87-2.97-9.4-2.26-12.36,1.56-2.98,3.84-2.28,9.39,1.56,12.36l-1.06,1.44,1.09-1.42c3.83,2.95,9.37,2.24,12.34-1.59,1.44-1.86,2.07-4.17,1.78-6.5-.29-2.34-1.48-4.42-3.34-5.86Z"/>
      <path class="uuid-11deea88-575a-429e-a5c0-a0b99b5af42b" d="m1720.75,606.58l-.04-.03c-5.4-4.19-6.39-11.99-2.2-17.39,4.17-5.38,11.95-6.38,17.35-2.23,2.66,2.06,4.33,4.99,4.75,8.28.41,3.28-.47,6.53-2.5,9.15-4.17,5.38-11.96,6.38-17.35,2.23Zm12.96-16.79c-3.87-2.97-9.4-2.26-12.36,1.56-2.98,3.84-2.28,9.39,1.56,12.36l-1.06,1.44,1.09-1.42c3.83,2.95,9.37,2.24,12.34-1.59,1.44-1.86,2.07-4.17,1.78-6.5-.29-2.34-1.48-4.42-3.34-5.86Z"/>
      <path class="uuid-11deea88-575a-429e-a5c0-a0b99b5af42b" d="m1180.54,510.96l-.04-.03c-5.4-4.19-6.39-11.99-2.2-17.39,4.17-5.38,11.95-6.38,17.35-2.23,2.66,2.06,4.33,4.99,4.75,8.28.41,3.28-.47,6.53-2.5,9.15-4.17,5.38-11.96,6.38-17.35,2.23Zm12.96-16.79c-3.87-2.97-9.4-2.26-12.36,1.56-2.98,3.84-2.28,9.39,1.56,12.36l-1.06,1.44,1.09-1.42c3.83,2.95,9.37,2.24,12.34-1.59,1.44-1.86,2.07-4.17,1.78-6.5-.29-2.34-1.48-4.42-3.34-5.86Z"/>
      <path class="uuid-11deea88-575a-429e-a5c0-a0b99b5af42b" d="m1241.88,463.87h-.01s-6.94-.02-6.94-.02l7.35-4.98c.82-.56,1.03-1.67.48-2.49-.56-.82-1.68-1.03-2.49-.48l-9.91,6.72.22-11.58c.02-.99-.77-1.81-1.76-1.83h-.01c-.98-.01-1.8.77-1.82,1.76l-.19,10.22-6.06-6.58c-.67-.72-1.8-.78-2.53-.1-.73.67-.77,1.81-.1,2.53l6.24,6.77-11.49-.04c-.99,0-1.8.8-1.8,1.79,0,.98.79,1.79,1.77,1.8h.02s10.48.04,10.48.04l-8.19,5.55c-.82.56-1.03,1.67-.48,2.49.34.51.9.78,1.46.79.36,0,.72-.1,1.03-.31l9.5-6.44-.22,11.67c-.02.99.77,1.81,1.76,1.83h.01c.98.01,1.8-.77,1.82-1.76l.21-11.02,6.46,7.01c.35.38.82.57,1.3.58.44,0,.89-.15,1.24-.47.73-.67.77-1.81.1-2.53l-6.77-7.34,9.31.03c.99,0,1.8-.8,1.8-1.79,0-.98-.79-1.79-1.78-1.8Z"/>
      <path class="uuid-11deea88-575a-429e-a5c0-a0b99b5af42b" d="m1629.94,682.19h-.01s-6.94-.02-6.94-.02l7.35-4.98c.82-.56,1.03-1.67.48-2.49-.56-.82-1.68-1.03-2.49-.48l-9.91,6.72.22-11.58c.02-.99-.77-1.81-1.76-1.83h-.01c-.98-.01-1.8.77-1.82,1.76l-.19,10.22-6.06-6.58c-.67-.72-1.8-.78-2.53-.1-.73.67-.77,1.81-.1,2.53l6.24,6.77-11.49-.04c-.99,0-1.8.8-1.8,1.79,0,.98.79,1.79,1.77,1.8h.02s10.48.04,10.48.04l-8.19,5.55c-.82.56-1.03,1.67-.48,2.49.34.51.9.78,1.46.79.36,0,.72-.1,1.03-.31l9.5-6.44-.22,11.67c-.02.99.77,1.81,1.76,1.83h.01c.98.01,1.8-.77,1.82-1.76l.21-11.02,6.46,7.01c.35.38.82.57,1.3.58.44,0,.89-.15,1.24-.47.73-.67.77-1.81.1-2.53l-6.77-7.34,9.31.03c.99,0,1.8-.8,1.8-1.79,0-.98-.79-1.79-1.78-1.8Z"/>
      <path class="uuid-11deea88-575a-429e-a5c0-a0b99b5af42b" d="m1068.1,751.12h-.01s-6.94-.02-6.94-.02l7.35-4.98c.82-.56,1.03-1.67.48-2.49-.56-.82-1.68-1.03-2.49-.48l-9.91,6.72.22-11.58c.02-.99-.77-1.81-1.76-1.83h-.01c-.98-.01-1.8.77-1.82,1.76l-.19,10.22-6.06-6.58c-.67-.72-1.8-.78-2.53-.1-.73.67-.77,1.81-.1,2.53l6.24,6.77-11.49-.04c-.99,0-1.8.8-1.8,1.79,0,.98.79,1.79,1.77,1.8h.02s10.48.04,10.48.04l-8.19,5.55c-.82.56-1.03,1.67-.48,2.49.34.51.9.78,1.46.79.36,0,.72-.1,1.03-.31l9.5-6.44-.22,11.67c-.02.99.77,1.81,1.76,1.83h.01c.98.01,1.8-.77,1.82-1.76l.21-11.02,6.46,7.01c.35.38.82.57,1.3.58.44,0,.89-.15,1.24-.47.73-.67.77-1.81.1-2.53l-6.77-7.34,9.31.03c.99,0,1.8-.8,1.8-1.79,0-.98-.79-1.79-1.78-1.8Z"/>
      <path class="uuid-11deea88-575a-429e-a5c0-a0b99b5af42b" d="m1746.86,809.23c-.81,0-1.52-.47-1.9-1.26-1.1-2.27-3.88-8.12-6.82-14.71-1.7.05-3.35.07-4.92.07-12.07,0-13.84-1.38-14.55-2.67-.44-.79-.4-1.71.11-2.52,1.37-2.17,7.91-7.94,12.3-11.68-6.01-15.55-5.57-19.41-2.89-20.52.53-.22,1.13-.18,1.62.13.07.04,6.84,4.18,14.77,9.33,13.53-10.64,15.3-10.64,16.07-10.64.97,0,2.03,1,2.06,1.97.04,1.73-2.28,11.81-3.86,18.31,11.79,8.41,12.78,10.69,12.76,12.3,0,.81-.4,1.53-1.07,1.99-2.03,1.36-9.65,2.34-16.17,2.95-4.74,16.96-5.96,16.96-7.51,16.96Zm-4.85-16.11c2.03,4.51,3.82,8.35,4.95,10.72.72-1.83,1.87-5.17,3.6-11.25-2.85.22-5.74.4-8.55.53Zm-19.35-4.09c1.34.31,4.3.72,10.57.72,1.08,0,2.2-.01,3.35-.04-1.52-3.49-2.9-6.75-4.1-9.73-5.31,4.56-8.4,7.5-9.82,9.05Zm12.7-11.5c1.44,3.61,3.15,7.66,5.09,12.07,3.64-.14,7.44-.37,11.14-.68,1.09-4,2.19-8.27,3.2-12.36-2.92-2.04-6.27-4.3-10-6.75-3.14,2.5-6.36,5.14-9.43,7.73Zm22.57,1.26c-.81,3.25-1.67,6.58-2.54,9.78,6.47-.65,10.37-1.35,12.14-1.85-.89-1.07-3.28-3.36-9.6-7.93Zm-28.03-18.46c.17,1.77,1.01,5.59,4.08,13.68,2.51-2.1,5.09-4.22,7.64-6.26-4.94-3.19-9.31-5.93-11.72-7.41Zm17.85,7.13c2.89,1.91,5.55,3.7,7.95,5.36,1.49-6.19,2.48-10.71,3-13.37-1.95,1.26-5.43,3.7-10.95,8.01Z"/>
      <path class="uuid-11deea88-575a-429e-a5c0-a0b99b5af42b" d="m1048.36,389.52c-.43,0-.86-.11-1.26-.34-2.24-1.26-8.34-7.48-12.32-11.66-8.52,3.82-14.08,5.68-17.01,5.68-2.08,0-2.96-.93-3.33-1.71-.25-.52-.23-1.12.04-1.63.04-.07,3.81-7.05,8.54-15.24-12.29-14.03-11.8-15.24-11.32-16.41.26-.63,1.03-1.18,1.71-1.24h.02c2.22,0,10.84,1.46,18.47,2.89,7.85-12.34,10.1-13.4,11.71-13.4.77,0,1.47.35,1.93.97,1.47,1.95,2.85,9.52,3.8,15.99,16.93,3.78,17.11,5.01,17.31,6.42.1.68-.15,1.61-1.14,2.15-.06.04-6.26,3.46-14.33,7.58,1.34,16.55-.37,18.41-1.02,19.13-.48.53-1.13.82-1.81.82Zm-10.13-13.58c4.84,5.07,7.94,8,9.56,9.33.32-1.85.52-6.06-.06-13.95-3.41,1.71-6.58,3.25-9.5,4.61Zm-12.71-8.49c-2.92,5.09-5.41,9.59-6.78,12.07,1.85-.28,5.66-1.35,13.43-4.77-2.23-2.39-4.48-4.86-6.65-7.3Zm1.89-3.27c2.66,3,5.47,6.08,8.21,9.01,3.53-1.63,7.48-3.55,11.78-5.72-.33-3.62-.77-7.41-1.27-11.09-4.06-.88-8.38-1.75-12.52-2.55-1.88,3.02-3.97,6.49-6.21,10.35Zm22.46-6.97c.37,2.83.7,5.71.97,8.51,4.4-2.26,8.14-4.26,10.45-5.51-1.86-.63-5.26-1.59-11.42-3Zm-33.5-6.37c1.38,1.94,4,5.27,8.55,10.5,1.75-2.99,3.4-5.74,4.93-8.22-5.89-1.09-10.64-1.88-13.48-2.28Zm19.32-.26c3.29.64,6.67,1.32,9.9,2.02-1-6.5-1.92-10.37-2.51-12.08-.89.88-3.04,3.33-7.4,10.07Z"/>
      <path class="uuid-11deea88-575a-429e-a5c0-a0b99b5af42b" d="m1036.17,512.15c-1.33,0-2.6,0-5.92-13.99-11.76-2.42-12.77-3.82-13.11-4.29-.33-.45-.46-1.27-.3-1.81.22-.75.74-2.5,14.28-7.75,4.99-12.51,6.62-12.51,7.7-12.51.57,0,1.36.41,1.7.88.85,1.17,1.6,4.2,2.72,9.05.35,1.52.78,3.35,1.03,4.16.7.33,2.26.91,3.55,1.38,6.89,2.57,8.67,3.44,8.97,5.1.11.62-.22,1.52-.69,1.94-1.42,1.24-8.15,3.64-11.68,4.84-5.87,12.9-7.09,12.95-8.17,12.99-.02,0-.05,0-.08,0Zm-14.45-19.77c2.35.71,6.63,1.74,10.37,2.49.69.14,1.23.67,1.39,1.35.91,3.89,2.1,8.33,2.97,10.87,1.34-2.33,3.37-6.47,5.02-10.12.2-.45.59-.8,1.06-.96,3.22-1.09,6.85-2.42,9.11-3.38-1.57-.69-3.7-1.48-5.08-2-3.94-1.47-4.68-1.79-5.18-2.48-.44-.6-.7-1.6-1.63-5.62-.35-1.51-.89-3.82-1.37-5.56-1.2,2.23-2.9,6.02-4.22,9.37-.18.47-.56.84-1.03,1.02-4.18,1.61-8.93,3.66-11.42,5.01Z"/>
      <path class="uuid-11deea88-575a-429e-a5c0-a0b99b5af42b" d="m1691.87,526.42c-1.33,0-2.6,0-5.92-13.99-11.76-2.42-12.78-3.82-13.11-4.29-.33-.45-.46-1.27-.3-1.81.22-.75.74-2.5,14.28-7.75,4.99-12.51,6.62-12.51,7.7-12.51.57,0,1.36.42,1.7.88.85,1.17,1.59,4.2,2.72,9.05.35,1.52.78,3.35,1.03,4.16.7.32,2.25.9,3.54,1.38,6.89,2.57,8.67,3.44,8.97,5.1.11.62-.22,1.52-.69,1.94-1.42,1.24-8.15,3.64-11.68,4.85-5.87,12.9-7.09,12.95-8.17,12.99-.02,0-.05,0-.08,0Zm-14.45-19.76c2.35.71,6.63,1.74,10.37,2.49.69.14,1.23.67,1.39,1.35.91,3.89,2.1,8.33,2.97,10.87,1.34-2.33,3.37-6.47,5.02-10.12.2-.45.59-.8,1.06-.96,3.22-1.09,6.85-2.42,9.11-3.38-1.57-.68-3.7-1.48-5.09-2-3.94-1.47-4.68-1.79-5.18-2.48-.44-.6-.7-1.6-1.63-5.62-.35-1.51-.89-3.82-1.37-5.55-1.2,2.23-2.9,6.02-4.22,9.37-.18.47-.56.84-1.03,1.02-4.18,1.61-8.93,3.66-11.42,5.01Z"/>
      <g>
        <path class="uuid-11deea88-575a-429e-a5c0-a0b99b5af42b" d="m1109.93,346.04c-.13,0-.27,0-.41-.03-6.46-.81-9.57-21.04-10.61-29.7-.12-.98.58-1.88,1.57-1.99.99-.11,1.88.58,1.99,1.57,1.63,13.62,5.21,26.28,7.5,26.57,1.62-1.36,1.88-14.78.33-29.25-.11-.98.61-1.87,1.59-1.97,1.02-.11,1.87.61,1.97,1.59.7,6.5,2.65,28.05-1.61,32.23-.65.64-1.47.98-2.32.98Z"/>
        <path class="uuid-11deea88-575a-429e-a5c0-a0b99b5af42b" d="m1171.11,309.52c-6.48,0-22.16-12.44-26.99-16.41-.77-.63-.88-1.76-.25-2.52.63-.76,1.76-.88,2.52-.25,11.24,9.23,22.63,16.39,24.82,15.59.83-1.9-7.8-11.83-18.29-20.67-.76-.64-.86-1.77-.22-2.52.64-.75,1.77-.85,2.52-.22,6.67,5.61,21.88,19.31,19.02,25.16-.45.91-1.26,1.54-2.3,1.76-.26.06-.54.08-.85.08Z"/>
        <path class="uuid-11deea88-575a-429e-a5c0-a0b99b5af42b" d="m1092.45,314c-.18,0-.37-.03-.54-.08-.48-.15-.88-.51-1.09-.97-.8-1.77-19.53-43.57-10.71-63.13,2.08-4.61,5.52-7.68,10.22-9.12,2.18-.67,4.47-1.01,6.78-1.01,25.05,0,48.46,39.25,49.44,40.92.24.41.31.9.19,1.36-.12.46-.42.86-.83,1.1l-52.55,30.69c-.28.16-.59.25-.9.25Zm4.65-70.73c-1.95,0-3.88.29-5.73.85-3.72,1.14-6.34,3.49-8,7.17-7.18,15.92,6.41,50.08,9.91,58.35l49.22-28.74c-4.58-7.24-25.04-37.63-45.41-37.63Z"/>
        <path class="uuid-431f2a72-9ebe-4d3e-8453-bdd76f7c0e4d" d="m1083.14,294.96l52.87-30.09,37.44-1.79s-32.85,79.95-110.91,59.14l20.61-27.26Z"/>
        <path class="uuid-11deea88-575a-429e-a5c0-a0b99b5af42b" d="m1111.34,257.97c-.64,0-1.26-.34-1.58-.94-4.75-8.79-15.11-4.72-15.55-4.54-.92.37-1.96-.07-2.33-.99s.07-1.96.99-2.33c4.75-1.93,15.05-3.1,20.05,6.16.47.87.15,1.96-.72,2.43-.27.15-.56.22-.85.22Z"/>
        <polygon class="uuid-431f2a72-9ebe-4d3e-8453-bdd76f7c0e4d" points="1079.73 282.97 1129.36 255.4 1136.01 264.87 1083.14 294.96 1079.73 282.97"/>
        <path class="uuid-11deea88-575a-429e-a5c0-a0b99b5af42b" d="m1092.24,316.54c-3.21,0-6.16-1.76-7.68-4.58-2.29-4.24-.7-9.54,3.53-11.83,4.11-2.22,9.62-.56,11.82,3.53,1.11,2.05,1.35,4.41.68,6.65s-2.16,4.07-4.22,5.18c-1.27.69-2.7,1.05-4.14,1.05Zm-.01-13.87c-.84,0-1.69.22-2.44.62-2.49,1.35-3.43,4.47-2.08,6.97,1.3,2.41,4.54,3.4,6.97,2.08,1.21-.65,2.09-1.74,2.48-3.05.39-1.32.25-2.71-.4-3.92-.9-1.66-2.63-2.7-4.53-2.7Z"/>
        <path class="uuid-11deea88-575a-429e-a5c0-a0b99b5af42b" d="m1121.41,306.98c-3.21,0-6.16-1.76-7.68-4.58-1.11-2.05-1.35-4.41-.68-6.65.67-2.23,2.17-4.07,4.22-5.18,4.11-2.22,9.62-.55,11.82,3.53,1.11,2.05,1.35,4.41.68,6.65s-2.16,4.07-4.21,5.18c-1.27.69-2.7,1.05-4.14,1.05Zm-.01-13.87c-.84,0-1.69.21-2.44.62-1.21.65-2.09,1.74-2.48,3.05-.39,1.32-.25,2.71.4,3.91,1.3,2.41,4.53,3.39,6.97,2.08,1.21-.65,2.09-1.74,2.48-3.05.39-1.32.25-2.71-.4-3.91-.9-1.66-2.63-2.7-4.53-2.7Z"/>
        <path class="uuid-11deea88-575a-429e-a5c0-a0b99b5af42b" d="m1145.32,289.75c-3.21,0-6.16-1.75-7.68-4.58-2.29-4.23-.7-9.54,3.53-11.83,4.12-2.22,9.62-.56,11.83,3.53,2.28,4.24.7,9.54-3.53,11.83-1.27.69-2.7,1.05-4.14,1.05Zm-.01-13.87c-.84,0-1.69.21-2.44.62-2.49,1.35-3.43,4.47-2.08,6.97,1.3,2.41,4.54,3.4,6.97,2.08,2.49-1.35,3.43-4.47,2.08-6.97-.9-1.66-2.63-2.7-4.53-2.7Z"/>
      </g>
      <polygon class="uuid-431f2a72-9ebe-4d3e-8453-bdd76f7c0e4d" points="1688.63 402.58 1710.36 390.16 1705.2 413.22 1720.8 428.11 1701.79 433.9 1691.33 453.72 1682.07 435.49 1658.19 433.51 1676.35 416.54 1668.65 395.58 1688.63 402.58"/>
      <polygon class="uuid-431f2a72-9ebe-4d3e-8453-bdd76f7c0e4d" points="1019.88 707.32 997.67 695.8 1019.84 687.64 1023.91 666.46 1039.07 679.3 1061.4 677.35 1051.09 695.01 1062.37 716.15 1038.26 710.09 1024.82 727.91 1019.88 707.32"/>
      <g>
        <g>
          <path class="uuid-03cdaa9b-d0b6-4285-b7ef-ebe77d9a70ff" d="m1657.14,250.15s-111.96-15.79-122.89,8.73c-10.93,24.52,2.34,76.8-6.45,90.2-8.79,13.4-21.59,25.55-1.59,26.51,20,.96,120.03,6.9,129.96-3.17,9.92-10.07,27.96-107.72.97-122.26Z"/>
          <path class="uuid-11deea88-575a-429e-a5c0-a0b99b5af42b" d="m1604.66,379.99h0c-27.44,0-58.31-1.58-73.14-2.34l-5.37-.27c-6.59-.32-10.32-1.83-11.74-4.77-2.23-4.6,2.25-10.85,7.44-18.08,1.49-2.08,3.04-4.24,4.48-6.43,3.8-5.79,3.07-20.72,2.29-36.53-.92-18.74-1.96-39.99,4.02-53.41,4.44-9.96,22.78-14.8,56.08-14.8s68.34,4.97,68.7,5.02c.21.03.41.1.6.2,7.07,3.81,11.72,12.87,13.84,26.92,5.32,35.36-6.64,90.32-14.38,98.18-2.67,2.71-11.05,6.32-52.79,6.32Zm-15.96-133.05c-38.98,0-50.23,6.89-52.81,12.67-5.63,12.64-4.61,33.43-3.71,51.77.84,17.12,1.57,31.91-2.87,38.68-1.47,2.23-3.04,4.43-4.56,6.55-4.14,5.78-8.42,11.75-7.12,14.43.53,1.09,2.46,2.45,8.68,2.75l5.39.27c14.8.76,45.61,2.34,72.96,2.34,39.22,0,48.31-3.29,50.25-5.25,6.18-6.28,18.62-60.36,13.39-95.13-1.9-12.68-5.85-20.8-11.72-24.15-3.65-.5-37.08-4.94-67.87-4.94Z"/>
        </g>
        <path class="uuid-7efcf311-bb95-455c-8a6f-8050f23017ff" d="m1593.45,347.88s-47.04-62.85-23.21-72.7c23.83-9.86,32.28,24.97,32.28,24.97,0,0,17.57-32.75,37.35-12.15,19.79,20.6-41.63,64.24-46.43,59.88Z"/>
      </g>
      <path class="uuid-11deea88-575a-429e-a5c0-a0b99b5af42b" d="m1466.68,284.75c-.18,0-.36-.03-.54-.08-.94-.3-1.47-1.3-1.17-2.25.7-2.22,1.32-4.5,1.83-6.78.22-.97,1.18-1.57,2.14-1.36.97.22,1.57,1.18,1.36,2.14-.54,2.38-1.18,4.75-1.91,7.07-.24.77-.95,1.25-1.71,1.25Zm3.14-13.99c-.08,0-.16,0-.24-.02-.98-.13-1.67-1.03-1.54-2.02.32-2.35.51-4.7.59-6.97.03-.99.88-1.77,1.85-1.73.99.03,1.76.86,1.73,1.85-.08,2.39-.29,4.85-.62,7.32-.12.9-.89,1.55-1.78,1.55Zm.45-14.31c-.92,0-1.71-.71-1.79-1.65-.19-2.36-.52-4.67-.99-6.86-.21-.97.41-1.92,1.38-2.13.96-.22,1.92.41,2.13,1.38.5,2.35.86,4.81,1.06,7.33.08.99-.66,1.85-1.64,1.93-.05,0-.1,0-.15,0Zm-98.28-.53c-1.89,0-3.83-.59-5.77-1.75-.31-.19-.6-.39-.88-.59-.8-.59-.97-1.71-.39-2.51.59-.8,1.71-.97,2.51-.39.19.14.4.28.61.41,1.69,1.01,3.3,1.41,4.76,1.17.98-.17,1.9.5,2.06,1.47.16.98-.5,1.9-1.47,2.06-.46.08-.94.12-1.43.12Zm6.68-4.25c-.32,0-.63-.08-.92-.26-.85-.51-1.12-1.61-.61-2.46.97-1.62,1.64-3.72,1.93-6.07.12-.98,1-1.7,2-1.56.98.12,1.68,1.02,1.56,2-.35,2.85-1.19,5.44-2.42,7.48-.34.56-.93.87-1.54.87Zm-189.01-.83s-.09,0-.13,0c-.99-.07-1.73-.93-1.65-1.92,0-.12.23-3.02,1.2-7.37.22-.97,1.18-1.57,2.14-1.36.97.22,1.58,1.17,1.36,2.14-.91,4.08-1.12,6.83-1.13,6.86-.07.94-.86,1.66-1.79,1.66Zm173.38-3c-.91,0-1.69-.69-1.78-1.61-.04-.44-.07-.89-.07-1.35,0-1.99.42-4.17,1.24-6.46.33-.93,1.36-1.42,2.29-1.08s1.42,1.36,1.08,2.29c-.68,1.9-1.03,3.67-1.03,5.25,0,.34.02.67.05.99.1.99-.62,1.86-1.6,1.96-.06,0-.12,0-.18,0Zm-76.87-1.19c-.7,0-1.36-.41-1.65-1.09-.39-.91.04-1.96.95-2.35,1.54-.66,2.37-2.07,2.47-4.19.05-.99.86-1.81,1.88-1.71.99.05,1.75.89,1.71,1.88-.16,3.51-1.82,6.11-4.65,7.32-.23.1-.47.14-.7.14Zm-6.85-.5c-.38,0-.76-.12-1.09-.37-2.05-1.57-3.2-4.26-3.33-7.78-.04-.99.73-1.82,1.72-1.86s1.82.73,1.86,1.72c.06,1.69.45,3.93,1.93,5.07.79.6.94,1.73.33,2.51-.35.46-.89.7-1.43.7Zm187.92-3.66c-.73,0-1.41-.45-1.68-1.17-.8-2.16-1.78-4.26-2.9-6.24-.49-.86-.18-1.96.68-2.44.86-.49,1.95-.18,2.44.68,1.21,2.14,2.26,4.41,3.13,6.75.34.93-.13,1.96-1.06,2.31-.21.08-.42.11-.63.11Zm-86.53-4.74c-.88,0-1.64-.64-1.77-1.54-.32-2.17-.89-4.38-1.71-6.55-.35-.93.12-1.96,1.05-2.31.93-.34,1.96.12,2.31,1.05.91,2.42,1.55,4.87,1.9,7.3.14.98-.54,1.89-1.52,2.03-.09.01-.17.02-.26.02Zm-187.97-.94c-.19,0-.38-.03-.57-.09-.94-.31-1.45-1.33-1.13-2.27.8-2.38,1.72-4.69,2.73-6.86.42-.9,1.48-1.28,2.38-.86.9.42,1.28,1.49.86,2.38-.96,2.04-1.82,4.22-2.58,6.48-.25.75-.95,1.22-1.7,1.22Zm174.6-2.38c-.33,0-.67-.09-.97-.29-.83-.54-1.07-1.65-.53-2.48,1.28-1.99,2.81-3.98,4.54-5.91.66-.74,1.79-.8,2.53-.14.74.66.8,1.79.14,2.53-1.6,1.79-3.01,3.63-4.2,5.46-.34.53-.92.82-1.51.82Zm-79.03-.5c-.71,0-1.38-.42-1.66-1.12-.78-1.94-1.87-3.93-3.25-5.93-.56-.82-.36-1.93.46-2.49.82-.56,1.93-.35,2.49.46,1.53,2.22,2.75,4.45,3.62,6.63.37.92-.08,1.96-.99,2.33-.22.09-.45.13-.67.13Zm-10.67-1.28c-.16,0-.32-.02-.48-.06-.95-.26-1.52-1.25-1.26-2.2.63-2.29,1.53-4.64,2.68-7,.43-.89,1.5-1.26,2.4-.83.89.43,1.26,1.51.83,2.4-1.05,2.16-1.87,4.31-2.44,6.38-.22.8-.94,1.32-1.73,1.32Zm182.57-2.59c-.53,0-1.05-.23-1.4-.68-1.41-1.77-2.99-3.47-4.69-5.05-.73-.67-.77-1.81-.1-2.53.67-.73,1.81-.77,2.53-.1,1.83,1.7,3.53,3.53,5.06,5.44.62.77.49,1.9-.29,2.52-.33.26-.72.39-1.12.39Zm-84.46-5.67c-.6,0-1.19-.31-1.53-.86-1.17-1.91-2.53-3.77-4.06-5.53-.65-.75-.57-1.88.17-2.53.74-.65,1.88-.57,2.53.17,1.23,1.42,2.37,2.9,3.39,4.42,1.67-1.4,3.44-2.74,5.26-3.97.82-.55,1.93-.34,2.49.48.55.82.34,1.94-.48,2.49-1.93,1.31-3.79,2.73-5.53,4.23-.25.21-.53.35-.83.4-.13.17-.29.32-.48.43-.29.18-.61.26-.93.26Zm-176.93-.55c-.33,0-.66-.09-.96-.28-.84-.53-1.08-1.64-.55-2.48,1.36-2.14,2.86-4.14,4.46-5.96.65-.74,1.78-.82,2.53-.16.74.65.82,1.79.16,2.53-1.47,1.68-2.86,3.54-4.12,5.52-.34.54-.92.83-1.51.83Zm81.5-1.74c-.47,0-.94-.19-1.3-.55-1.55-1.62-3.28-3.19-5.12-4.65-.78-.61-.91-1.74-.29-2.52.61-.77,1.74-.91,2.52-.29,1.98,1.56,3.82,3.24,5.49,4.98.68.72.66,1.85-.06,2.54-.35.33-.79.5-1.24.5Zm169.43-1.79c-.36,0-.72-.11-1.03-.33-1.83-1.29-3.82-2.52-5.91-3.66-.87-.47-1.19-1.56-.72-2.43.47-.87,1.57-1.19,2.43-.72,2.21,1.2,4.32,2.51,6.27,3.88.81.57,1,1.69.43,2.5-.35.5-.9.76-1.47.76Zm-165.95-.54c-.35,0-.71-.1-1.02-.32-.82-.56-1.02-1.68-.46-2.49,1.4-2.03,2.96-3.98,4.64-5.8.67-.73,1.8-.77,2.53-.1.73.67.77,1.81.1,2.53-1.56,1.69-3.02,3.51-4.32,5.4-.35.5-.91.78-1.48.78Zm104.87-4.06c-.65,0-1.27-.35-1.59-.97-.46-.88-.11-1.96.77-2.42,2.19-1.14,4.46-2.15,6.74-3.01.92-.36,1.96.12,2.31,1.04.35.93-.12,1.96-1.04,2.31-2.15.81-4.28,1.77-6.35,2.84-.26.14-.55.2-.82.2Zm-22.29-2.1c-.41,0-.82-.14-1.16-.43-1.71-1.45-3.59-2.83-5.58-4.11-.83-.53-1.07-1.64-.54-2.48.53-.84,1.64-1.08,2.48-.54,2.12,1.36,4.12,2.84,5.96,4.39.75.64.85,1.77.21,2.53-.35.42-.86.63-1.37.63Zm70.81-.14c-.23,0-.46-.04-.68-.13-2.17-.89-4.38-1.65-6.58-2.27-.95-.27-1.51-1.26-1.24-2.21.27-.96,1.26-1.52,2.21-1.24,2.34.65,4.68,1.46,6.98,2.4.92.38,1.35,1.42.98,2.34-.29.69-.95,1.11-1.66,1.11Zm-168.08-.25c-.32,0-.63-.08-.92-.26-1.96-1.18-4.03-2.27-6.16-3.22-.9-.41-1.31-1.47-.9-2.37.41-.9,1.46-1.3,2.37-.9,2.25,1.01,4.46,2.17,6.54,3.42.85.51,1.12,1.61.61,2.46-.34.56-.93.87-1.54.87Zm-60.85-.07c-.53,0-1.04-.23-1.4-.67-.62-.77-.5-1.9.27-2.52,1.95-1.57,4.05-2.96,6.23-4.14.88-.47,1.96-.14,2.43.73.47.87.14,1.96-.73,2.43-1.99,1.07-3.9,2.34-5.68,3.77-.33.27-.73.4-1.12.4Zm193.79-2.49c-.81,0-1.54-.55-1.74-1.37-.23-.96.36-1.93,1.32-2.17,2.41-.59,4.86-1.02,7.28-1.3.99-.12,1.87.6,1.98,1.58s-.6,1.87-1.58,1.98c-2.27.26-4.57.66-6.83,1.22-.14.04-.29.05-.43.05Zm21.35-1.02c-.09,0-.17,0-.26-.02-2.29-.33-4.62-.53-6.91-.56-.99-.02-1.78-.83-1.76-1.82.02-.98.82-1.76,1.79-1.76h.03c2.45.04,4.93.24,7.37.6.98.14,1.66,1.05,1.51,2.03-.13.89-.9,1.53-1.77,1.53Zm-129.91-.37c-.52,0-1.04-.23-1.39-.66-.62-.77-.51-1.9.26-2.52,1.92-1.56,3.97-2.99,6.09-4.25.85-.51,1.95-.23,2.46.63.51.85.23,1.95-.63,2.46-1.97,1.17-3.87,2.5-5.66,3.95-.33.27-.73.4-1.13.4Zm-37.43-1.92c-.18,0-.36-.03-.54-.08-2.18-.7-4.45-1.28-6.75-1.74-.97-.19-1.6-1.14-1.4-2.11.19-.97,1.14-1.61,2.11-1.4,2.42.49,4.82,1.11,7.13,1.84.94.3,1.46,1.31,1.16,2.25-.24.76-.95,1.25-1.71,1.25Zm-35.27-.95c-.76,0-1.46-.48-1.71-1.24-.3-.94.21-1.95,1.15-2.26,2.31-.75,4.74-1.32,7.24-1.7.97-.15,1.89.52,2.04,1.5s-.52,1.89-1.5,2.04c-2.31.35-4.55.88-6.68,1.57-.18.06-.37.09-.55.09Zm133.57-.54c-.26,0-.53-.06-.78-.18-2.04-1-4.21-1.92-6.43-2.74-.93-.34-1.4-1.37-1.06-2.3.34-.93,1.37-1.4,2.3-1.06,2.33.86,4.6,1.83,6.75,2.88.89.43,1.26,1.51.82,2.4-.31.64-.95,1.01-1.61,1.01Zm-112.33-1.35c-.06,0-.11,0-.17,0-1.28-.12-2.58-.21-3.91-.26-.79-.03-1.57-.05-2.33-.05h-.72c-1.02.05-1.81-.77-1.82-1.76-.01-.99.78-1.81,1.77-1.82h.77c.81,0,1.64.01,2.47.04,1.4.06,2.76.15,4.11.28.99.09,1.71.97,1.61,1.95-.09.93-.87,1.62-1.78,1.62Zm63.74-2.52c-.71,0-1.38-.42-1.66-1.12-.37-.92.07-1.96.99-2.33,2.28-.92,4.66-1.68,7.08-2.26.95-.22,1.93.36,2.16,1.33.23.96-.37,1.93-1.33,2.16-2.24.53-4.45,1.24-6.56,2.09-.22.09-.45.13-.67.13Zm35.17-1.14c-.16,0-.31-.02-.47-.06l-.73-.2c-2.05-.54-4.1-.99-6.09-1.32-.98-.16-1.64-1.09-1.47-2.06.16-.98,1.09-1.65,2.06-1.47,2.1.35,4.26.82,6.42,1.4l.75.2c.96.26,1.52,1.24,1.26,2.2-.22.8-.94,1.32-1.73,1.32Zm-21.28-2.18c-.92,0-1.7-.7-1.78-1.63-.09-.99.64-1.86,1.63-1.95,1.56-.14,3.24-.3,4.8-.21.85,0,1.72.02,2.6.06.99.05,1.76.88,1.71,1.87s-.96,1.78-1.87,1.71c-.84-.04-1.68-.1-2.49-.06-1.51,0-2.99.07-4.43.2-.05,0-.11,0-.16,0Z"/>
      <g>
        <g>
          <path class="uuid-5a60bbdd-c67d-48ea-9ca3-1c9d93f9f3d5" d="m1504.59,459.99s-46.61,3.59-44.82,17.93c1.79,14.34,17.93,28.68,41.23,25.1,23.31-3.59,8.96-30.48,30.48-32.27,21.51-1.79,93.22-5.38,96.81-12.55,3.59-7.17-5.38-23.31-5.38-23.31l-118.32,25.1Z"/>
          <path class="uuid-9ad1c609-cdec-49e1-a470-670af9d6d815" d="m1624.74,459.27s-7.03,2.47-11.34,3.6c1.78-7.56.14-24.01-1.78-25.69-13.37-11.7-26.02-4.55-35.83-5.12,0,0-17.32,1.97-26.37,15.38-10.44,15.48-.89,23.53,7.47,29.51,6.13,4.38,16.28,3.38,29.87-2.55,10.09,22.28,30.09,83.87,26,88.98-4.66,5.83-112.02-26.52-129.49-29.22-21.3-7.71-59.07-14.26-60.11-20.46-.61-3.68-.77-21.59-.77-39.05,9.74-3.11,21.6-9.23,32.48-24.86,5.53-7.93,6.32-21.4,4.23-37.03,1.7.22,3.55.05,5.58-.65,19.34-6.64,18.49-36.74,3.05-52.61-8.71-8.95-15.85-1.4-20.42,6.88-10.25-29.24-24.15-55.7-32.13-61.79-39.39-30.02-109.72,23.53-109.72,23.53-26.45,11.08-6.85,63.03,6.12,91.12-9.63-3.52-22.87-5.8-22.78,8.3.14,22.14,20.67,44.17,39.1,35.33,1.87-.9,3.28-2.03,4.33-3.32,5.05,6.65,12.02,13.38,21.41,17.97,1.96,15.52,3.06,31.13.3,35.27-7.27,10.9-33.28,5.6-55.67,14.5-24.31,2.6-129.28,118.37-141.17,109.46-1.65-1.24-56.49-53.88-58.32-61.22-2.39-9.56,6.2,13.65,22.75,6.62,12.87-5.47-29.92-21.18-12-34.33,17.93-13.15,52.46,5.62,40.51-11.11-11.95-16.73-40.64-5.98-40.64-5.98,0,0,44.22-17.93,32.27-28.68-3.41-3.07-7.31-3.46-11.15-2.52,2.58-2.87,3.45-5.51.39-7.04-2.77-1.38-6.24-.63-9.77,1.09,5-5.33,6.7-9.98-3.38-9.45-22.71,1.2-46.61,27.49-56.17,50.2-9.56,22.71,7.95,103.9,11.53,99.12,0,0,0,0,0,0,7.27,30.17,37.38,109.99,61.55,102.04,24.85-8.17,90.68-60.92,133.83-96.93,15.63,24.69,28.68,92.47,29.18,115.97,0,0,184.49,17.66,188.29-6.36,2.15-13.61.54-128.65,3.32-129.21,17.93-3.59,194.23,46.37,197.56,19.72,7.17-57.37-62.12-179.4-62.12-179.4Z"/>
          <path class="uuid-866392e8-f0fb-4429-9019-05d695c9a81f" d="m1471.52,474.17s28.13-9.78,33.84-4.89c5.71,4.89,0,17.94-13.45,20.79-13.45,2.85-34.24-12.64-20.38-15.9Z"/>
          <path class="uuid-11deea88-575a-429e-a5c0-a0b99b5af42b" d="m1360.52,429.64c-4.42,0-16.43-11.78-23.27-18.89-.69-.71-.67-1.85.05-2.54.71-.68,1.85-.67,2.54.05,7.48,7.77,16.74,16.21,19.95,17.6.19-3.31-2.91-14.6-6.23-24.11-.33-.93.17-1.96,1.1-2.28.93-.32,1.96.17,2.28,1.1,3.11,8.91,7.99,24.38,5.74,27.9-.43.67-1.11,1.08-1.93,1.16-.07,0-.15.01-.22.01Z"/>
          <path class="uuid-11deea88-575a-429e-a5c0-a0b99b5af42b" d="m1421.24,406.66c-1.38,0-4.77-1.55-18.13-24.7-.5-.86-.2-1.95.66-2.45.86-.5,1.95-.2,2.45.66,5,8.67,11.19,18.36,14.17,21.77.6-5.23.79-17.83.76-25.74,0-.99.8-1.8,1.79-1.8h0c.99,0,1.79.8,1.79,1.79,0,2.51.05,24.63-1.27,28.81-.29.93-1.01,1.55-1.92,1.65-.09.01-.19.02-.31.02Z"/>
          <path class="uuid-11deea88-575a-429e-a5c0-a0b99b5af42b" d="m1303.66,449.04c-.74,0-1.43-.46-1.69-1.19-1-2.8-3.92-12.11.58-14.48,3.97-2.1,14.34,6.04,20.17,11.07.75.65.83,1.78.19,2.53s-1.78.83-2.53.19c-6.95-5.99-14.51-10.92-16.23-10.58-.98.53-.42,5.53,1.2,10.07.33.93-.15,1.96-1.08,2.29-.2.07-.4.11-.6.11Z"/>
          <path class="uuid-11deea88-575a-429e-a5c0-a0b99b5af42b" d="m1457.22,397.27s-.1,0-.15,0c-.99-.08-1.72-.95-1.64-1.93.62-7.68,2.31-20.75,6.6-22.05,4.89-1.47,9.33,7.22,10.58,9.91.42.9.03,1.96-.87,2.38-.89.41-1.96.02-2.38-.87-2.03-4.38-5.19-8.34-6.29-7.99-1.38.91-3.32,9.75-4.06,18.9-.08.94-.86,1.65-1.79,1.65Z"/>
          <circle class="uuid-866392e8-f0fb-4429-9019-05d695c9a81f" cx="1352.38" cy="450.49" r="13.51"/>
          <circle class="uuid-866392e8-f0fb-4429-9019-05d695c9a81f" cx="1436.96" cy="423" r="13.51"/>
          <path class="uuid-11deea88-575a-429e-a5c0-a0b99b5af42b" d="m1389.68,432.59c-.61,0-1.21-.31-1.54-.88-.51-.85-.23-1.95.63-2.46.38-.23,8.91-5.28,13.32-6.88-.46-3.54-8.01-17.11-15.21-28.41-.53-.84-.29-1.94.55-2.48.83-.53,1.94-.29,2.48.55,6.48,10.17,17.12,27.84,15.58,31.98-.29.77-.86,1.31-1.62,1.54-3.06.92-10.62,5.21-13.27,6.78-.29.17-.6.25-.91.25Z"/>
          <path class="uuid-11deea88-575a-429e-a5c0-a0b99b5af42b" d="m1403.54,459.74c-8.05,0-17.86-14.8-19.87-17.96-.53-.84-.28-1.94.55-2.47.84-.53,1.95-.28,2.47.55,4.76,7.5,13.34,17.47,17.57,16.19,1.45-.44,4.78-3.33,4.28-20.48-.03-.99.75-1.82,1.74-1.85.97,0,1.82.75,1.85,1.74.43,14.83-1.73,22.46-6.82,24.01-.58.18-1.17.26-1.78.26Z"/>
          <path class="uuid-11deea88-575a-429e-a5c0-a0b99b5af42b" d="m1390.11,483.32c-14,0-25.65-2.3-26.58-2.49-.97-.2-1.6-1.14-1.4-2.11.2-.97,1.15-1.58,2.11-1.4.43.09,43.03,8.5,62.95-7,.78-.61,1.91-.46,2.52.31.61.78.47,1.91-.31,2.52-10.37,8.07-25.91,10.17-39.29,10.17Z"/>
          <path class="uuid-30da9e8e-a116-480c-8bd1-e9404c17d669" d="m1423.91,294.46c-27.49-21.51-62.15-10.76-62.15-10.76-28.91,5.34-46.99,14.82-57.57,26.06-3.4-14.05-13.22-31.12-40.72-33.38-47.68-3.91-59.25,36.3-53.67,58.15,5.58,21.85,10.38,42.2-11.47,47.77-21.85,5.58,22.97,22.38,34.11,7.11,0,0-7.36,15.21-15.23,20.23-7.87,5.02,25.61,21.97,44.52-5.87,3.33-4.91,6.52-10.33,9.56-15.95,4.09,31.1,39.34,35.83,48.64,40.48,6.62,3.31.63-20.91-3.68-36.1.86.58,1.69,1.07,2.49,1.44,20.32,9.56,46.61-4.78,53.78-15.54,7.17-10.76-1.2-41.83-1.2-41.83,0,0,16.73,31.07,29.88,29.88,10.97-1,43.03-13.15,47.81-16.73,4.78-3.59,2.39-33.46-25.1-54.98Z"/>
          <path class="uuid-30da9e8e-a116-480c-8bd1-e9404c17d669" d="m1427.5,336.29s20.32,46.61,22.71,39.44c2.39-7.17,4.78-49-7.17-54.98-11.95-5.98-15.54,15.54-15.54,15.54Z"/>
          <path class="uuid-431f2a72-9ebe-4d3e-8453-bdd76f7c0e4d" d="m1345.03,515.57s8.37,20.32,39.44,43.03c31.07,22.71,44.22-45.42,59.76-40.64,15.54,4.78,114.74,21.51,117.13,29.88,2.39,8.37,7.17,89.64,0,89.64s-58.56-4.78-58.56-4.78c0,0,4.78,121.91-2.39,126.69-7.17,4.78-191.23,1.2-210.35,4.78-19.12,3.59-11.95-107.57-20.32-112.35-8.37-4.78-26.29,29.88-34.66,11.95-8.37-17.93-49.37-69.39-37.05-81.27,66.93-64.54,124.3-64.54,147.01-66.93Z"/>
          <path class="uuid-bf688af6-2292-459a-8624-e8a0bffea019" d="m1331.89,592.06s106.37-11.95,119.52-3.59c13.15,8.37,32.27,50.2,35.86,65.73s3.59,107.57-3.59,108.76c-7.17,1.2-173.3,8.37-179.28,3.59-5.98-4.78-10.76-88.44-9.56-101.59s33.46-68.12,37.05-72.91Z"/>
          <path class="uuid-8e9a54de-375d-47a9-bf7b-205081841540" d="m1331.89,593.85c-.7,0-1.37-.41-1.65-1.1-6.1-14.65,3.08-71.47,3.47-73.88.16-.98,1.08-1.65,2.06-1.48.98.16,1.64,1.08,1.48,2.06-.1.58-9.41,58.22-3.7,71.93.38.91-.05,1.96-.96,2.34-.23.09-.46.14-.69.14Z"/>
          <path class="uuid-8e9a54de-375d-47a9-bf7b-205081841540" d="m1456.19,590.26c-.11,0-.21,0-.32-.03-.97-.18-1.62-1.11-1.44-2.08.07-.39,6.92-39.14-4.62-62.22-.44-.89-.08-1.96.8-2.41.89-.44,1.96-.08,2.41.8,12.08,24.16,5.24,62.83,4.94,64.47-.16.87-.91,1.47-1.76,1.47Z"/>
          <path class="uuid-5a60bbdd-c67d-48ea-9ca3-1c9d93f9f3d5" d="m1083.29,621.94s139.83-103.98,148.2-96.81c8.37,7.17,32.27,59.76-31.07,111.15-63.34,51.39-154.18,15.54-117.13-14.34Z"/>
          <circle class="uuid-30da9e8e-a116-480c-8bd1-e9404c17d669" cx="1136.48" cy="563.97" r="20.92"/>
          <path class="uuid-11deea88-575a-429e-a5c0-a0b99b5af42b" d="m1101.67,523.14c-.46,0-.92-.18-1.27-.53-.7-.7-.7-1.83,0-2.54s18.03-17.88,31.82-18.31c.96,0,1.82.75,1.85,1.74.03.99-.75,1.82-1.73,1.85-12.37.39-29.23,17.09-29.4,17.26-.35.35-.81.53-1.27.53Z"/>
          <path class="uuid-11deea88-575a-429e-a5c0-a0b99b5af42b" d="m1092.15,521.9c-.27,0-.54-.06-.8-.19-.89-.44-1.24-1.52-.8-2.41,6.82-13.64,28.08-23.57,28.98-23.99.9-.42,1.96-.02,2.38.88s.02,1.96-.88,2.38c-.21.1-21.02,9.82-27.27,22.34-.32.63-.95.99-1.61.99Z"/>
          <path class="uuid-11deea88-575a-429e-a5c0-a0b99b5af42b" d="m1130.04,648.34c-5.79,0-11.04-.45-15.65-1.13-19.94-2.91-32.17-10.27-32.68-10.58-.85-.51-1.11-1.62-.6-2.46.52-.85,1.62-1.11,2.46-.6.48.29,48.65,28.76,107.76-6.63,44.14-26.42,34.01-82.77,33.9-83.34-.18-.97.45-1.91,1.43-2.1.99-.18,1.91.46,2.1,1.43.11.59,10.67,59.39-35.59,87.08-23.86,14.28-45.88,18.32-63.14,18.32Z"/>
          <path class="uuid-11deea88-575a-429e-a5c0-a0b99b5af42b" d="m1559.64,476.77c-.5,0-.99-.21-1.35-.61-14.82-16.88-7.64-30.96-7.32-31.55.47-.87,1.55-1.21,2.42-.75.87.46,1.21,1.54.75,2.42h0c-.26.51-6.27,12.58,6.85,27.52.65.74.58,1.88-.16,2.53-.34.3-.76.45-1.18.45Z"/>
          <path class="uuid-11deea88-575a-429e-a5c0-a0b99b5af42b" d="m1568.66,475.34c-.3,0-.61-.08-.89-.24-9.25-5.28-1.71-30.7-.82-33.58.29-.95,1.29-1.48,2.24-1.18.95.29,1.48,1.3,1.18,2.24-3.03,9.82-5.93,26.5-.82,29.41.86.49,1.16,1.59.67,2.45-.33.58-.93.9-1.56.9Z"/>
          <path class="uuid-11deea88-575a-429e-a5c0-a0b99b5af42b" d="m1578.89,473.36c-.72,0-1.39-.43-1.67-1.14-3.74-9.57,3.6-30.67,3.92-31.57.33-.93,1.35-1.42,2.29-1.1.93.33,1.43,1.35,1.1,2.29-2.02,5.74-6.67,22.16-3.96,29.07.36.92-.09,1.96-1.02,2.32-.21.08-.44.12-.65.12Z"/>
          <path class="uuid-11deea88-575a-429e-a5c0-a0b99b5af42b" d="m1589.17,469.68c-.58,0-1.15-.28-1.49-.8-.55-.82-.33-1.94.5-2.49,9.55-6.37,6.35-25.57,6.32-25.76-.17-.98.48-1.9,1.46-2.07.98-.17,1.9.48,2.07,1.46.15.88,3.61,21.71-7.86,29.36-.31.2-.65.3-.99.3Z"/>
          <path class="uuid-11deea88-575a-429e-a5c0-a0b99b5af42b" d="m1587.31,477.1c-.48-.33-.78-.88-.77-1.51.02-.99.83-1.78,1.82-1.76,11.48.2,19.78-17.41,19.86-17.58.42-.9,1.48-1.29,2.38-.87.9.42,1.29,1.48.87,2.38-.38.81-9.39,19.91-23.18,19.66-.37,0-.71-.12-.99-.32Z"/>
          <path class="uuid-11deea88-575a-429e-a5c0-a0b99b5af42b" d="m1621.46,600.02c-.55,0-1.08-.25-1.44-.72-7.32-9.77-8.99-34.75-9.06-35.81-.06-.99.69-1.84,1.68-1.9.95-.05,1.84.69,1.9,1.68.02.25,1.66,24.98,8.35,33.89.6.79.43,1.92-.36,2.51-.32.24-.7.36-1.07.36Z"/>
          <path class="uuid-11deea88-575a-429e-a5c0-a0b99b5af42b" d="m1222.57,619.19c.53-.12,1.11,0,1.56.38,9.3,7.9,16.46,31.9,16.76,32.92.28.95-.26,1.95-1.21,2.23-.92.26-1.95-.26-2.23-1.21-.07-.24-7.15-23.99-15.64-31.2-.76-.64-.85-1.77-.21-2.53.26-.31.6-.5.97-.59Z"/>
          <path class="uuid-11deea88-575a-429e-a5c0-a0b99b5af42b" d="m1317.54,758.78c-.89,0-1.66-.66-1.78-1.56-1.11-8.5-10.63-83.43-3.35-95.57,1.86-3.11,4.03-8.62,6.55-15.01,6.98-17.74,16.55-42.04,30.84-42.04,6.47,0,18.86-.96,31.99-1.99,29.42-2.29,50.66-3.73,55.96-1.45,9.14,3.92,42.92,43.05,42.92,57.82,0,.99-.8,1.79-1.79,1.79s-1.79-.8-1.79-1.79c0-12.93-32.49-50.99-40.74-54.53-4.92-2.11-32.28.02-54.27,1.73-13.2,1.03-25.66,2-32.27,2-11.86,0-20.9,22.98-27.51,39.76-2.57,6.54-4.79,12.18-6.81,15.54-5.62,9.36.86,70.5,3.83,93.26.13.98-.56,1.88-1.55,2.01-.08.01-.16.02-.23.02Z"/>
          <path class="uuid-11deea88-575a-429e-a5c0-a0b99b5af42b" d="m1398.55,574.11c-.89,0-1.78-.07-2.67-.23-21.09-3.67-52.78-42.14-54.12-43.78-.63-.77-.51-1.89.25-2.52.76-.63,1.89-.51,2.52.25.32.39,32.17,39.07,51.95,42.51,19.07,3.31,39.21-39.89,39.41-40.33.41-.9,1.47-1.3,2.38-.88.9.41,1.29,1.48.88,2.38-.83,1.81-19.84,42.59-40.61,42.59Z"/>
          <path class="uuid-8e9a54de-375d-47a9-bf7b-205081841540" d="m1398.1,342.82c-.81,0-1.54-.55-1.74-1.38-6.56-27.4-25.96-33.02-26.78-33.25-.95-.26-1.52-1.25-1.26-2.2.26-.95,1.25-1.51,2.19-1.26.91.24,22.25,6.31,29.33,35.87.23.96-.36,1.93-1.33,2.16-.14.03-.28.05-.42.05Z"/>
          <path class="uuid-8e9a54de-375d-47a9-bf7b-205081841540" d="m1423.72,334.69c-.96,0-1.75-.75-1.79-1.72-.47-11.41-4.11-20.1-10.84-25.85-11.19-9.56-27.26-7.83-27.42-7.81-.98.13-1.87-.59-1.99-1.57s.59-1.87,1.57-1.99c.72-.09,17.8-1.92,30.16,8.65,7.51,6.42,11.58,15.99,12.09,28.43.04.99-.73,1.82-1.72,1.86-.02,0-.05,0-.08,0Z"/>
          <path class="uuid-8e9a54de-375d-47a9-bf7b-205081841540" d="m1349.31,360.71c-.5,0-.99-.21-1.35-.61-12.23-13.92-6.75-42.99-6.51-44.22.19-.98,1.13-1.61,2.1-1.42.97.19,1.61,1.13,1.42,2.1-.05.29-5.38,28.57,5.68,41.17.65.74.58,1.88-.16,2.53-.34.3-.76.45-1.18.45Z"/>
          <path class="uuid-8e9a54de-375d-47a9-bf7b-205081841540" d="m1313.94,377.79c-.5,0-1-.21-1.35-.62-11.57-13.29,4.69-53.42,5.39-55.12.37-.92,1.43-1.36,2.34-.98.92.37,1.36,1.42.98,2.34-4.52,11.03-14.4,41.76-6,51.41.65.75.57,1.88-.18,2.53-.34.3-.76.44-1.18.44Z"/>
          <path class="uuid-8e9a54de-375d-47a9-bf7b-205081841540" d="m1234.66,347.7c-.9,0-1.68-.68-1.78-1.59-.16-1.39-3.58-34.12,18.38-40.15,21.42-5.89,36.81,7.54,37.45,8.12.74.66.8,1.79.15,2.53-.66.74-1.79.8-2.53.15-.15-.13-14.6-12.69-34.11-7.34-19.01,5.22-15.8,35.98-15.77,36.29.11.98-.6,1.87-1.58,1.98-.07,0-.13.01-.2.01Z"/>
          <path class="uuid-8e9a54de-375d-47a9-bf7b-205081841540" d="m1251.74,384.7c-.6,0-1.19-.3-1.53-.85-.52-.84-.26-1.95.58-2.47,2.99-1.85,2.81-4.28,2.06-10.08-.8-6.17-1.89-14.61,2.5-26.04,2.99-7.78,7.17-12.54,12.42-14.17,6.65-2.07,12.39,1.79,12.63,1.96.81.56,1.02,1.67.47,2.48-.56.82-1.67,1.03-2.49.48-.05-.03-4.59-3.06-9.58-1.48-4.13,1.3-7.53,5.35-10.1,12.03-4.07,10.58-3.04,18.51-2.29,24.29.72,5.6,1.35,10.44-3.72,13.59-.29.18-.62.27-.94.27Z"/>
          <path class="uuid-8e9a54de-375d-47a9-bf7b-205081841540" d="m1275.34,734.22c-.68,0-1.32-.38-1.63-1.03-.42-.9-.03-1.96.87-2.38.62-.29,15.29-7.1,21.56-7.1.99,0,1.79.8,1.79,1.79s-.8,1.79-1.79,1.79c-4.54,0-16.01,4.88-20.04,6.76-.25.11-.5.17-.76.17Z"/>
          <path class="uuid-30da9e8e-a116-480c-8bd1-e9404c17d669" d="m1493.66,482.99c-1.28,0-2.56-.39-3.78-1.17-5.43-3.46-10.42.44-10.47.48-.78.62-1.9.49-2.52-.28-.62-.77-.49-1.9.28-2.52,2.42-1.93,8.58-4.56,14.63-.71.95.61,1.82.75,2.74.46,2.84-.91,5.29-5.64,5.99-7.38.37-.92,1.41-1.37,2.33-1,.92.37,1.37,1.41,1,2.33-.32.8-3.27,7.87-8.21,9.46-.66.21-1.32.32-1.99.32Z"/>
          <path class="uuid-11deea88-575a-429e-a5c0-a0b99b5af42b" d="m1545.2,581.35c.95-13.97,4.04-25.44,4.29-26.35.26-.95,1.25-1.52,2.2-1.25.95.26,1.5,1.25,1.25,2.2-.12.42-11.4,42.35,2.71,63.28.56.82.33,1.94-.48,2.49-.82.55-1.94.34-2.49-.48-7.34-10.9-8.39-26.54-7.48-39.89Z"/>
        </g>
        <path class="uuid-d0464c2a-504d-4a66-98c2-c95a936815fa" d="m1122.12,763.67s553.22-4.56,562.75,0c9.54,4.56,64.38,157.41,59.61,164.25-4.77,6.84-684.37,4.56-684.37-4.56s62-159.69,62-159.69Z"/>
        <path class="uuid-30da9e8e-a116-480c-8bd1-e9404c17d669" d="m1318.74,786.87s267.12-5.38,277.88,7.17c10.76,12.55,48.4,95.02,30.48,96.81-17.93,1.79-337.04,5.38-337.04-7.17s23.31-91.43,28.68-96.81Z"/>
        <g>
          <path class="uuid-bf688af6-2292-459a-8624-e8a0bffea019" d="m1171.63,770.62c-1.51-5.64-23.29-18.33-23.29-18.33l-1.35-64.37c3.11.11,5.38.18,5.98.21,2.69.14,1.25-6.88-.21-13.44-1.46-6.56-37.83-6.11-37.83-6.11,0,0-3.84,13.7-1.72,16.12.46.53,2.56.98,5.5,1.37-2.43,21.13-2.62,65.01-2.62,65.01,0,0-11.71,9.59-21.14,18.37-7.77,7.24-2.5,127.72-2.5,127.72,0,0,71.22,2.72,78.38,3.09,2.24.11,2.31-124.03.81-129.66Z"/>
          <path class="uuid-03cdaa9b-d0b6-4285-b7ef-ebe77d9a70ff" d="m1090.91,796.6s80.29-1.91,82.48,2.83c2.19,4.74,1.99,55.69.44,57.93-2.7,3.88-79.78,1.47-82.18.89-2.4-.59-2.81-58.97-.73-61.65Z"/>
          <path class="uuid-11deea88-575a-429e-a5c0-a0b99b5af42b" d="m1168.56,810.24c-.2,0-.4-.03-.6-.1-5.37-1.9-46.71-1.3-73.19-.44-.98.05-1.82-.74-1.85-1.73-.03-.99.74-1.82,1.73-1.85,6.81-.23,66.77-2.1,74.51.64.93.33,1.42,1.36,1.09,2.29-.26.74-.95,1.19-1.69,1.19Z"/>
          <path class="uuid-11deea88-575a-429e-a5c0-a0b99b5af42b" d="m1093.94,853.21c-.98,0-1.78-.78-1.79-1.76-.02-.99.77-1.81,1.76-1.82,23.33-.4,68.84-1.47,74.15-2.63.96-.22,1.92.4,2.13,1.37.21.97-.4,1.92-1.37,2.13-6.97,1.52-72.08,2.66-74.85,2.71h-.03Z"/>
          <path class="uuid-11deea88-575a-429e-a5c0-a0b99b5af42b" d="m1137.85,687.3c-.14,0-.28-.02-.42-.05-4.62-1.12-15.58-1.24-15.69-1.24-.99-.01-1.79-.82-1.78-1.81,0-.99.79-1.82,1.81-1.78.47,0,11.48.13,16.49,1.34.96.23,1.55,1.2,1.32,2.16-.2.82-.93,1.37-1.74,1.37Z"/>
          <path class="uuid-11deea88-575a-429e-a5c0-a0b99b5af42b" d="m1146.89,677.11c-.31,0-.62-.08-.9-.24-1.93-1.12-14.69-1.93-25.93-2.06-.99-.01-1.78-.82-1.77-1.81.01-.99.82-1.8,1.81-1.77,3.97.05,23.98.38,27.69,2.54.85.5,1.14,1.6.65,2.45-.33.57-.93.89-1.55.89Z"/>
          <path class="uuid-11deea88-575a-429e-a5c0-a0b99b5af42b" d="m1159.54,894.55c-.19,0-.38-.03-.56-.09-19.23-6.37-56.65-.64-57.02-.58-.98.16-1.89-.52-2.05-1.5-.15-.98.52-1.9,1.5-2.05,1.57-.24,38.66-5.92,58.7.72.94.31,1.45,1.33,1.14,2.27-.25.75-.95,1.23-1.7,1.23Z"/>
          <path class="uuid-11deea88-575a-429e-a5c0-a0b99b5af42b" d="m1139.65,739.74c-.82,0-1.55-.56-1.75-1.39-1.86-8.08-1.67-29.25-1.66-30.15.01-.99.65-1.78,1.81-1.78.99.01,1.79.82,1.78,1.81,0,.22-.19,21.64,1.57,29.31.22.96-.38,1.93-1.34,2.15-.13.03-.27.05-.4.05Z"/>
          <path class="uuid-11deea88-575a-429e-a5c0-a0b99b5af42b" d="m1165.75,773.5c-.63,0-1.25-.34-1.57-.93-2.14-3.9-11.72-9.41-15.24-11.2-.88-.45-1.23-1.53-.78-2.41.45-.88,1.52-1.23,2.41-.78,1.39.71,13.7,7.11,16.75,12.67.48.87.16,1.96-.71,2.43-.27.15-.57.22-.86.22Z"/>
          <path class="uuid-11deea88-575a-429e-a5c0-a0b99b5af42b" d="m1112.75,835.64c-.05,0-.1,0-.15,0-.99-.08-1.72-.95-1.64-1.93.08-.91.87-8.95,5.46-12.16,1.82-1.27,4.02-1.62,6.36-.98,6.19,1.68,6.11,6.97,6.07,9.81,0,.1,0,.2,0,.31,1.23-1.1,2.19-3.07,3.05-4.86,1.37-2.83,2.66-5.51,5-6.18.78-.22,2.02-.3,3.46.62,3.46,2.19,3.07,6.09,2.81,8.67-.09.88-.25,2.51,0,2.81,1,.27,3.32-1.69,4.72-2.87,3.06-2.59,7.26-6.14,10.84-2.86.73.67.78,1.8.11,2.53-.67.73-1.8.78-2.53.11-1.07-.98-2.82.17-6.1,2.95-2.68,2.26-5.2,4.39-7.86,3.65-3.33-.94-2.98-4.4-2.75-6.68.27-2.66.32-4.35-1.16-5.29-.09-.06-.41-.25-.56-.2-.79.22-1.97,2.67-2.75,4.29-1.4,2.9-2.86,5.91-5.43,7.07-.47.21-1.89.85-3.15.03-1.33-.87-1.31-2.47-1.28-4.17.05-3.22-.16-5.41-3.42-6.29-1.33-.36-2.41-.22-3.36.45-2.73,1.91-3.77,7.52-3.95,9.53-.08.93-.86,1.64-1.78,1.64Z"/>
        </g>
        <g>
          <path class="uuid-866392e8-f0fb-4429-9019-05d695c9a81f" d="m1180,789.52s7.73-31.12,50.75-27.54c43.03,3.59,67.52,62.23,17.32,81.95-50.2,19.72-87.79-13.19-68.07-54.42Z"/>
          <path class="uuid-1ffb2fa5-f1db-45a1-9f63-a9a49ec9d43c" d="m1189.72,770.62s-14.58-12.42-11.34-16.2c3.24-3.78,12.42-13.5,13.5-7.56,1.08,5.94,4.32,15.66,4.32,15.66,0,0,22.68-11.34,34.55-.54,11.88,10.8-17.82,0-14.58,5.94,3.24,5.94,19.98,15.12,13.5,19.98-6.48,4.86-28.62-7.02-28.62-7.02,0,0,2.16,22.68-1.62,23.22-3.78.54-12.42-14.58-12.42-14.58,0,0-10.8,25.38-12.96,14.58-2.16-10.8,7.56-30.78,15.66-33.47Z"/>
          <path class="uuid-11deea88-575a-429e-a5c0-a0b99b5af42b" d="m1268.01,805.89h-.04c-.99-.02-1.77-.85-1.75-1.83.5-21.01-26.99-28.39-27.27-28.46-.96-.25-1.53-1.23-1.29-2.18.25-.96,1.23-1.55,2.18-1.29.3.08,30.52,8.19,29.96,32.01-.02.98-.82,1.75-1.79,1.75Z"/>
        </g>
        <g>
          <path class="uuid-03cdaa9b-d0b6-4285-b7ef-ebe77d9a70ff" d="m1635.38,780.04s25.26-1.63,26.08.61c.81,2.24,19.76,51.95,14.67,56.03-5.09,4.07-43.19,4.89-50.12.81-6.93-4.07,7.54-58.47,9.37-57.46Z"/>
          <path class="uuid-30da9e8e-a116-480c-8bd1-e9404c17d669" d="m1627.64,760.89s37.32-4.64,39.78.28c2.46,4.92-3.5,15.79-5.96,19.48,0,0-18.03,2.67-24.8,1.44s-20.09-20.59-9.02-21.2Z"/>
          <path class="uuid-03cdaa9b-d0b6-4285-b7ef-ebe77d9a70ff" d="m1634.88,764.49s3.28-1.15,4.42.66-2.29,3.11-4.1,1.97c-1.8-1.15-2.13-2.46-.33-2.62Z"/>
          <path class="uuid-03cdaa9b-d0b6-4285-b7ef-ebe77d9a70ff" d="m1645.07,762.24s3.28-1.15,4.42.66-2.29,3.11-4.1,1.97-2.13-2.46-.33-2.62Z"/>
          <path class="uuid-03cdaa9b-d0b6-4285-b7ef-ebe77d9a70ff" d="m1639.77,769.38s3.28-1.15,4.42.66c1.15,1.8-2.29,3.11-4.1,1.97s-2.13-2.46-.33-2.62Z"/>
          <path class="uuid-03cdaa9b-d0b6-4285-b7ef-ebe77d9a70ff" d="m1650.98,769.78s3.28-1.15,4.42.66c1.15,1.8-2.29,3.11-4.1,1.97-1.8-1.15-2.13-2.46-.33-2.62Z"/>
          <path class="uuid-03cdaa9b-d0b6-4285-b7ef-ebe77d9a70ff" d="m1655.87,765.3s3.28-1.15,4.42.66c1.15,1.8-2.29,3.11-4.1,1.97-1.8-1.15-2.13-2.46-.33-2.62Z"/>
          <path class="uuid-11deea88-575a-429e-a5c0-a0b99b5af42b" d="m1668.07,824.44c-.76,0-1.47-.49-1.71-1.25-2.36-7.48-8.47-31.52-8.73-32.54-.24-.96.34-1.93,1.3-2.18.95-.25,1.93.33,2.18,1.3.06.25,6.34,24.96,8.67,32.34.3.94-.22,1.95-1.17,2.25-.18.06-.36.08-.54.08Z"/>
        </g>
        <g>
          <path class="uuid-03cdaa9b-d0b6-4285-b7ef-ebe77d9a70ff" d="m1645.05,891.96s-1.63-25.26.61-26.08,51.95-19.76,56.03-14.67c4.07,5.09,4.89,43.19.81,50.12-4.07,6.93-58.47-7.54-57.46-9.37Z"/>
          <path class="uuid-30da9e8e-a116-480c-8bd1-e9404c17d669" d="m1625.89,899.7s-4.64-37.32.28-39.78c4.92-2.46,15.79,3.5,19.48,5.96,0,0,2.67,18.03,1.44,24.8-1.23,6.77-20.59,20.09-21.2,9.02Z"/>
          <path class="uuid-03cdaa9b-d0b6-4285-b7ef-ebe77d9a70ff" d="m1629.49,892.45s-1.15-3.28.66-4.42,3.11,2.29,1.97,4.1c-1.15,1.8-2.46,2.13-2.62.33Z"/>
          <path class="uuid-03cdaa9b-d0b6-4285-b7ef-ebe77d9a70ff" d="m1627.25,882.27s-1.15-3.28.66-4.42c1.8-1.15,3.11,2.29,1.97,4.1s-2.46,2.13-2.62.33Z"/>
          <path class="uuid-03cdaa9b-d0b6-4285-b7ef-ebe77d9a70ff" d="m1634.38,887.56s-1.15-3.28.66-4.42c1.8-1.15,3.11,2.29,1.97,4.1-1.15,1.8-2.46,2.13-2.62.33Z"/>
          <path class="uuid-03cdaa9b-d0b6-4285-b7ef-ebe77d9a70ff" d="m1634.79,876.36s-1.15-3.28.66-4.42c1.8-1.15,3.11,2.29,1.97,4.1-1.15,1.8-2.46,2.13-2.62.33Z"/>
          <path class="uuid-03cdaa9b-d0b6-4285-b7ef-ebe77d9a70ff" d="m1630.3,871.47s-1.15-3.28.66-4.42,3.11,2.29,1.97,4.1c-1.15,1.8-2.46,2.13-2.62.33Z"/>
          <path class="uuid-11deea88-575a-429e-a5c0-a0b99b5af42b" d="m1655.21,869.76c-.8,0-1.53-.54-1.73-1.35-.25-.96.34-1.93,1.3-2.18.25-.06,24.96-6.34,32.34-8.67.94-.29,1.95.23,2.25,1.17.3.94-.23,1.95-1.17,2.25-7.48,2.36-31.52,8.47-32.53,8.73-.15.04-.3.06-.44.06Z"/>
        </g>
        <g>
          <path class="uuid-4218e8bc-ef03-40c5-9c80-1cbfa175a2d4" d="m1264,890.29s49.32-6.06,26.77-40.83c-14.7-22.66-109.13,9.76-105.96,19.43,3.17,9.67,18.21,30.44,79.19,21.39Z"/>
          <path class="uuid-11deea88-575a-429e-a5c0-a0b99b5af42b" d="m1274.69,884.04c-.09,0-.17,0-.26-.02-.98-.14-1.66-1.05-1.51-2.03,2.87-19.71-4.42-29.5-4.49-29.6-.6-.78-.46-1.91.33-2.51.78-.6,1.9-.46,2.51.32.34.44,8.31,10.97,5.2,32.32-.13.89-.9,1.53-1.77,1.53Z"/>
          <path class="uuid-11deea88-575a-429e-a5c0-a0b99b5af42b" d="m1252.57,882.12c-.22,0-.43-.04-.64-.12-.92-.36-1.38-1.39-1.03-2.32,2.89-7.49-1.18-26.35-1.22-26.53-.21-.97.4-1.92,1.37-2.13.97-.21,1.92.4,2.13,1.37.18.82,4.34,20.09,1.06,28.59-.27.71-.95,1.15-1.67,1.15Z"/>
          <path class="uuid-11deea88-575a-429e-a5c0-a0b99b5af42b" d="m1234.11,880.88c-.36,0-.72-.11-1.04-.33-.81-.57-.99-1.69-.42-2.5,3.66-5.14-.51-15.75-2.43-19.4-.46-.88-.12-1.96.75-2.42.88-.46,1.96-.12,2.42.75.32.62,7.87,15.16,2.17,23.15-.35.49-.9.75-1.46.75Z"/>
          <path class="uuid-1ffb2fa5-f1db-45a1-9f63-a9a49ec9d43c" d="m1293.01,853.4s4.22,6.47,13.65-9.4c9.43-15.86,15.63-20.13,16.91-7.98,1.28,12.15-5.43,17.68-5.43,17.68,0,0,18.7-17.67,25.92-9.84,7.22,7.83-16.75,18.84-16.75,18.84,0,0,12.97-2.75,15.9,12.14,2.94,14.9-20.76-4.92-20.76-4.92,0,0,7.42,14.1,1.28,19.46-6.14,5.37-18.92-29.53-27.53-21.06-2.32,2.28-3.2-14.94-3.2-14.94Z"/>
          <path class="uuid-11deea88-575a-429e-a5c0-a0b99b5af42b" d="m1211.48,880.22c-.43,0-.87-.16-1.21-.47-.73-.67-.78-1.8-.11-2.53,5.81-6.35-1.44-18.56-1.51-18.69-.51-.85-.24-1.95.61-2.46.85-.52,1.95-.24,2.46.61.36.6,8.69,14.65,1.09,22.96-.35.39-.84.58-1.32.58Z"/>
          <path class="uuid-11deea88-575a-429e-a5c0-a0b99b5af42b" d="m1300.24,860.05c-.84,0-1.59-.59-1.76-1.45-.19-.97.44-1.91,1.41-2.1,10.55-2.07,12-6.73,12.02-6.78.27-.94,1.24-1.5,2.18-1.26.94.25,1.52,1.17,1.3,2.12-.16.7-1.96,6.92-14.81,9.44-.12.02-.23.03-.35.03Z"/>
          <path class="uuid-11deea88-575a-429e-a5c0-a0b99b5af42b" d="m1323.85,867.12c-.24,0-.49-.05-.73-.16-.09-.04-8.74-3.81-16.62-1.09-.94.32-1.96-.18-2.28-1.11-.32-.94.17-1.96,1.11-2.28,9.24-3.19,18.85,1.02,19.25,1.2.9.4,1.31,1.46.9,2.37-.3.67-.95,1.06-1.64,1.06Z"/>
        </g>
        <g>
          <path class="uuid-5a60bbdd-c67d-48ea-9ca3-1c9d93f9f3d5" d="m1368.94,670.34s185.25-10.76,193.62,4.78c8.37,15.54-11.95,170.91-20.32,170.91s-147.01,7.17-155.37-2.39c-8.37-9.56-28.68-172.1-17.93-173.3Z"/>
          <path class="uuid-866392e8-f0fb-4429-9019-05d695c9a81f" d="m1388.06,688.27s157.76-8.37,156.57,3.59c-1.2,11.95-1.2,39.44-68.12,45.42-66.93,5.98-98-47.81-88.44-49Z"/>
          <path class="uuid-11deea88-575a-429e-a5c0-a0b99b5af42b" d="m1480.94,757.42c-4.51,0-9.25-.33-14.26-1.05-67.14-9.59-83.2-43.81-83.85-45.26-.4-.9,0-1.96.9-2.37.9-.41,1.96,0,2.37.89.15.34,16.08,33.9,81.09,43.18,27.1,3.88,49.68-3.15,67.09-20.89,13.05-13.29,18.16-27.96,18.21-28.11.32-.93,1.34-1.44,2.27-1.12.94.32,1.44,1.34,1.12,2.27-.19.57-18.53,52.44-74.94,52.44Z"/>
          <path class="uuid-866392e8-f0fb-4429-9019-05d695c9a81f" d="m1421.28,860.59s-15.89-.21-18.28-13.36c-2.39-13.15,10.16-35.86,16.73-32.87s-2.39,20.32,8.96,22.11c11.35,1.79-.6-30.48,19.12-30.48s-2.39,8.96,9.56,22.71c11.95,13.74,11.35-19.12,17.93-19.12s22.71-.6,21.51,21.51c-1.2,22.11,13.74,1.79,15.54-7.77,1.79-9.56,18.53-8.96,20.32,6.57,1.79,15.54-2.83,24.35-8.37,28.09-13.23,8.93-103.03,2.6-103.03,2.6Z"/>
          <path class="uuid-30da9e8e-a116-480c-8bd1-e9404c17d669" d="m1458.84,702.85c-14.87,0-25.87-7.38-26.38-7.72-.82-.56-1.03-1.67-.47-2.49.56-.82,1.67-1.02,2.49-.47.13.09,12.83,8.55,28.68,6.87,5.26-.56,9.62-2.34,13.85-4.06,8.84-3.6,17.99-7.32,34.34.64.89.43,1.26,1.51.83,2.4-.44.89-1.51,1.26-2.4.83-14.92-7.27-22.56-4.16-31.42-.55-4.45,1.81-9.06,3.69-14.82,4.3-1.6.17-3.17.25-4.7.25Z"/>
          <path class="uuid-30da9e8e-a116-480c-8bd1-e9404c17d669" d="m1461.16,724.78c-1.05,0-2.13-.02-3.24-.06-33.34-1.21-36.15-11.09-36.36-12.22-.18-.97.46-1.91,1.43-2.09.95-.19,1.86.43,2.08,1.36.1.3,3.14,8.28,32.98,9.37,14.32.53,23.23-2.65,30.4-5.2,9.2-3.27,15.85-5.63,26.23,2.6.78.61.91,1.74.29,2.52-.61.78-1.74.91-2.52.29-8.83-7-13.79-5.23-22.8-2.03-6.9,2.45-15.37,5.46-28.48,5.46Z"/>
          <path class="uuid-aad337ff-10ed-4937-b61e-bbd46d3f5608" d="m1419.59,861.01s-4.64-17.37,7.91-16.77-1.2,8.96,10.16,9.56c11.35.6,2.39-16.13,13.74-13.15,11.35,2.99,10.16,12.55,16.13,11.35,5.98-1.2,1.2-11.35,10.16-12.55s-5.38,8.37,12.55,12.55c17.93,4.18,19.12-14.94,24.5-10.76,5.38,4.18,5.98,17.93-2.99,19.72-8.96,1.79-92.77,4.22-92.17.04Z"/>
        </g>
      </g>
    </g>
  </g>
  <g id="uuid-ab98a7e0-0cbf-4528-9f3d-9ed0a0eae80e" data-name="Capa 5">
    <text class="uuid-fc58e36b-fdcd-452e-b361-a5326541ecc5" transform="translate(143.88 306.59)"><tspan x="0" y="0">Welcome to</tspan></text>
    <text class="uuid-98c86ed5-d4a9-4f25-947d-00b241a0e478" transform="translate(675.68 445.63)"><tspan x="0" y="0">Want to blow your guests away</tspan><tspan x="66.19" y="23.8">with your cooking skills?</tspan></text>
    <text class="uuid-98c86ed5-d4a9-4f25-947d-00b241a0e478" transform="translate(125.79 679.22)"><tspan x="0" y="0">Our Lemon Recipes Book will make you the ultimate kitchen wizard, pulling lemons out of thin air</tspan><tspan x="-7.11" y="23.8">and turning them into insanely delicious dishes that&apos;ll leave everyone speechless (with a tangy twist)</tspan></text>
    <g>
      <text class="uuid-13c2c2ac-72ce-4b0e-96fc-04868b63a04a" transform="translate(159.54 408.61)"><tspan x="0" y="0">Lemon Recipes Book!</tspan></text>
      <text class="uuid-5cdc0f81-4f23-41c3-8ece-5ffef90a3ab6" transform="translate(143.14 391.28)"><tspan x="0" y="0">Lemon Recipes Book!</tspan></text>
    </g>
  </g>
</svg>