<?xml version="1.0" encoding="UTF-8"?>
<svg id="uuid-0b6b1999-0a06-4e6f-9385-e92b79ca21e2" data-name="Capa 2" xmlns="http://www.w3.org/2000/svg" viewBox="0 0 169.6 163.94">
  <defs>
    <style>
      .uuid-260702ca-bf4a-43f4-b06c-0dd4919ad0e1 {
        fill: #77b255;
      }

      .uuid-c9b53809-dcae-493d-b1ff-fff74a5e12ab {
        fill: #5c913b;
      }

      .uuid-d9489a9b-3f74-4b54-93c8-c64945ede699 {
        fill: #fff77d;
      }
    </style>
  </defs>
  <g id="uuid-b1009652-2fb5-42d8-bee5-03bcf84928c6" data-name="Capa 4">
    <g>
      <path class="uuid-c9b53809-dcae-493d-b1ff-fff74a5e12ab" d="m107.74,26.13s5.64-7.21,6.54-10.51,2.4-5.41-4.5-4.2-.9,4.42-27.63-.34-38.74,5.45-39.34,9.35,9.91,20.42,9.91,20.42l55.02-14.71Z"/>
      <path class="uuid-d9489a9b-3f74-4b54-93c8-c64945ede699" d="m26.15,95.29s2.45,24.95,22.5,42.54,31.52,28.22,76.08,25.77c0,0,20.45-4.09,24.13-2.86s10.63,2.05,12.27-2.45-2.43-12.68,2.86-21.68,9.41-42.54,0-62.17-22.9-42.13-53.99-50.31-55.22,2.05-55.22,2.05c0,0-18-.41-18,4.09s-18.83,40.53-10.63,65.03Z"/>
      <path class="uuid-260702ca-bf4a-43f4-b06c-0dd4919ad0e1" d="m40.15,28.69s7.77,14.32,2.86,32.31-9,26.18-20.86,40.9c0,0-10.63,17.59-13.5,13.91s2.45-13.09-4.09-28.63-2.05-37.63,6.14-46.22,16.36-14.72,26.18-14.72c0,0-7.91-9.82-35.45-18,0,0-4.2-4.93,1.81-8.23,0,0,28.6,3.09,47.22,26.21-5.41,0-10.3,2.47-10.3,2.47Z"/>
    </g>
  </g>
</svg>