<?xml version="1.0" encoding="UTF-8"?>
<svg id="uuid-09640048-1dd6-4961-9b38-56f574cf1669" data-name="Capa 2" xmlns="http://www.w3.org/2000/svg" viewBox="0 0 127.72 124.01">
  <defs>
    <style>
      .uuid-6796bae5-f55b-4c04-a9d4-7273801fc268 {
        fill: #77b255;
      }

      .uuid-fbbe56a7-0a25-443f-b930-256e43269718 {
        fill: #5c913b;
      }

      .uuid-b2aedad0-5bbf-469f-80aa-81c29633bbe3 {
        fill: none;
      }

      .uuid-d9eb7c52-4dda-4fb8-961d-9a858fae521d {
        fill: #fff77d;
      }
    </style>
  </defs>
  <g id="uuid-54bb789d-494d-4ba9-8308-d1bd52128531" data-name="Capa 2">
    <g>
      <path class="uuid-b2aedad0-5bbf-469f-80aa-81c29633bbe3" d="m78.32,14.18c.52-1.43-.37-.84-.25.59.03-.01.05-.02.08-.04.05-.19.11-.37.16-.56Z"/>
      <path class="uuid-b2aedad0-5bbf-469f-80aa-81c29633bbe3" d="m101.51,122.03c-.12.02-.15.02,0,0h0Z"/>
      <path class="uuid-b2aedad0-5bbf-469f-80aa-81c29633bbe3" d="m76.34,9.2s-.26.07-.52.1c.28,0,.5-.03.52-.1Z"/>
      <path class="uuid-b2aedad0-5bbf-469f-80aa-81c29633bbe3" d="m82.39,19.66s-.04.07-.07.1c1.35.56,1-.36.07-.1Z"/>
      <path d="m123.06,53.79c-3.8-7.89-8.26-15.5-14.33-21.87-5.41-5.67-12.08-10.13-19.36-13.04,1.72-4.5,1.89-9.37-3.8-10.98-2.42-.68-5.28-.36-7.65.4-.76.24-1.51.59-2.23.92-.04.01-.09.03-.13.03-.06.01-.12.02-.16.03-.46-.01-.92-.04-1.02-.05-2.93-.09-4.36-.41-7.23-.88-7.88-1.3-15.55-2.45-23.46-.67-2.88.65-5.76,1.73-8.27,3.32-4.67-3.42-9.78-6.12-15.28-8.14C16.51,1.56,12.17.05,8.24,0,.27-.1-2.51,10.84,2.54,15.91c1.61,1.61,4.15,2,6.24,2.7,1.92.64,3.84,1.32,5.72,2.11,1.05.44,2.09.92,3.12,1.43-4.17,2.57-7.83,6.08-10.62,9.91C2.19,38.65.41,47.9.84,55.92c.26,4.75,1.54,8.8,3.07,13.24,1.23,3.56,1.48,6.96,1.29,10.69-.16,3.13-.23,6.31,1.82,8.91,2.77,3.51,7.31,3.29,10.61.72,1.46-1.13,2.71-2.5,3.86-3.96,3.43,7.94,8.83,14.97,15.39,20.7,8.5,7.43,17.3,13.85,28.59,16.18,7.54,1.56,15.31,1.79,22.99,1.49,2.35-.09,4.55-.42,6.84-.84,1.15-.21,2.29-.41,3.44-.6.6-.1,1.19-.19,1.79-.28.37-.06.74-.11,1.1-.16.08-.01.18-.02.28-.03,1.2-.14,2.42-.29,3.63-.31.17,0,.36.01.54.02.29.11.64.16.91.23,4.02.95,8.91.89,12.1-2.11,3-2.82,3.23-6.55,2.97-10.41-.12-1.72-.3-3.5.2-5.17.41-1.39,1.21-2.63,1.77-3.97,2.76-6.52,3.5-14.02,3.66-21.03.2-8.7-.96-17.49-4.64-25.43ZM76.34,9.2c-.03.06-.24.09-.52.1.26-.03.51-.07.52-.1Zm25.16,112.83c-.15.02-.12.02,0,0h0Zm16.32-22.74c-3.61,6.14-.84,11.73-1.95,14.8s-5.86,2.51-8.38,1.68c-2.51-.84-16.47,1.95-16.47,1.95-30.42,1.68-38.26-5.58-51.94-17.59-11.85-10.4-14.69-24.57-15.24-28.17-.87,1.16-1.82,2.37-2.85,3.65,0,0-7.26,12.01-9.21,9.49-1.95-2.51,1.68-8.94-2.79-19.55-4.47-10.61-1.4-25.69,4.19-31.55,5.58-5.86,11.17-10.05,17.87-10.05,0,0-5.4-6.7-24.2-12.29,0,0-2.87-3.37,1.23-5.62,0,0,15.18,1.65,27.48,12.86,1.99-3.07,10.26-8.18,26.39-5.3,12.68,2.26,14.57,1.89,16.12,1.17-.12-1.43.77-2.02.25-.59-.06.18-.11.37-.16.56.65-.31,1.28-.66,2.66-.9,4.72-.82,3.69.62,3.08,2.87-.21.78-.81,1.87-1.5,2.96.93-.26,1.28.66-.07.1-.6.95-1.25,1.88-1.8,2.63.15.04.29.07.43.11,21.22,5.58,30.44,20.94,36.86,34.35,6.42,13.4,3.61,36.3,0,42.44Z"/>
      <path class="uuid-fbbe56a7-0a25-443f-b930-256e43269718" d="m40.31,23.93c-.35,0-.7.02-1.04.05,2.21-.12,4-.08,4-.08,0,0,16.25-6.88,37.26-1.5.54-.74,1.2-1.68,1.8-2.63.02-.03.04-.07.07-.1.69-1.1,1.29-2.19,1.5-2.96.62-2.26,1.64-3.69-3.08-2.87-1.38.24-2.01.6-2.66.9-.03.01-.05.03-.08.04-1.55.71-3.44,1.09-16.12-1.17-16.13-2.87-24.4,2.24-26.39,5.3,1.65,1.5,3.25,3.17,4.75,5.04Z"/>
      <path class="uuid-d9eb7c52-4dda-4fb8-961d-9a858fae521d" d="m117.83,56.85c-6.42-13.4-15.64-28.76-36.86-34.35-.15-.04-.29-.07-.43-.11-21.01-5.38-37.26,1.5-37.26,1.5,0,0-1.79-.04-4,.08-3.25.26-5.99,1.64-5.99,1.64,0,0,5.31,9.77,1.95,22.06-2.92,10.72-5.42,16.34-11.39,24.28.55,3.6,3.39,17.77,15.24,28.17,13.68,12.01,21.52,19.27,51.94,17.59,0,0,13.96-2.79,16.47-1.95,2.51.84,7.26,1.4,8.38-1.68s-1.66-8.66,1.95-14.8c3.61-6.14,6.42-29.04,0-42.44Zm-61.36-30.73c2.11-.02,4.24.19,6.34.44,10.14,1.21,20.23,4.3,28.86,9.85,12.47,8.01,20.27,20.66,22.96,35.14.47,2.54-3.42,3.62-3.89,1.07-1.54-8.28-4.66-16.28-10.02-22.86-10.3-12.64-28.04-19.76-44.26-19.61-2.6.02-2.6-4.01,0-4.04Z"/>
      <path class="uuid-6796bae5-f55b-4c04-a9d4-7273801fc268" d="m35.23,47.68c3.35-12.29-1.95-22.06-1.95-22.06,0,0,2.74-1.38,5.99-1.64.34-.03.69-.05,1.04-.05-1.5-1.87-3.1-3.53-4.75-5.04C23.26,7.68,8.08,6.04,8.08,6.04c-4.1,2.26-1.23,5.62-1.23,5.62,18.8,5.58,24.2,12.29,24.2,12.29-6.7,0-12.29,4.19-17.87,10.05-5.58,5.86-8.66,20.94-4.19,31.55,4.47,10.61.84,17.03,2.79,19.55,1.95,2.51,9.21-9.49,9.21-9.49,1.03-1.28,1.98-2.49,2.85-3.65,5.97-7.94,8.47-13.56,11.39-24.28Z"/>
      <path d="m56.47,30.16c16.22-.16,33.96,6.97,44.26,19.61,5.36,6.58,8.47,14.57,10.02,22.86.48,2.55,4.37,1.47,3.89-1.07-2.7-14.48-10.5-27.13-22.96-35.14-8.64-5.55-18.72-8.64-28.86-9.85-2.09-.25-4.22-.46-6.34-.44-2.6.02-2.6,4.06,0,4.04Z"/>
    </g>
  </g>
</svg>